# Tiled2Unity generated file. Do not modify by hand.
# Wavefront file for 'CityMap2.5_mesh_0004.obj'

# Vertices (Count = 784)
v -24 -2 0
v -25 -2 0
v -25 -1 0
v -24 -1 0
v -25 -2 0
v -26 -2 0
v -26 -1 0
v -25 -1 0
v -26 -2 0
v -27 -2 0
v -27 -1 0
v -26 -1 0
v -27 -2 0
v -28 -2 0
v -28 -1 0
v -27 -1 0
v -28 -2 0
v -29 -2 0
v -29 -1 0
v -28 -1 0
v -29 -2 0
v -30 -2 0
v -30 -1 0
v -29 -1 0
v -30 -2 0
v -31 -2 0
v -31 -1 0
v -30 -1 0
v -24 -3 0
v -25 -3 0
v -25 -2 0
v -24 -2 0
v -30 -3 0
v -31 -3 0
v -31 -2 0
v -30 -2 0
v -24 -4 0
v -25 -4 0
v -25 -3 0
v -24 -3 0
v -30 -4 0
v -31 -4 0
v -31 -3 0
v -30 -3 0
v -24 -5 0
v -25 -5 0
v -25 -4 0
v -24 -4 0
v -30 -5 0
v -31 -5 0
v -31 -4 0
v -30 -4 0
v -30 -6 0
v -31 -6 0
v -31 -5 0
v -30 -5 0
v -24 -7 0
v -25 -7 0
v -25 -6 0
v -24 -6 0
v -30 -7 0
v -31 -7 0
v -31 -6 0
v -30 -6 0
v -24 -8 0
v -25 -8 0
v -25 -7 0
v -24 -7 0
v -25 -8 0
v -26 -8 0
v -26 -7 0
v -25 -7 0
v -27 -8 0
v -28 -8 0
v -28 -7 0
v -27 -7 0
v -28 -8 0
v -29 -8 0
v -29 -7 0
v -28 -7 0
v -29 -8 0
v -30 -8 0
v -30 -7 0
v -29 -7 0
v -30 -8 0
v -31 -8 0
v -31 -7 0
v -30 -7 0
v -1 -9 0
v -2 -9 0
v -2 -8 0
v -1 -8 0
v -2 -9 0
v -3 -9 0
v -3 -8 0
v -2 -8 0
v -3 -9 0
v -4 -9 0
v -4 -8 0
v -3 -8 0
v -4 -9 0
v -5 -9 0
v -5 -8 0
v -4 -8 0
v -5 -9 0
v -6 -9 0
v -6 -8 0
v -5 -8 0
v -6 -9 0
v -7 -9 0
v -7 -8 0
v -6 -8 0
v -7 -9 0
v -8 -9 0
v -8 -8 0
v -7 -8 0
v -13 -9 0
v -14 -9 0
v -14 -8 0
v -13 -8 0
v -14 -9 0
v -15 -9 0
v -15 -8 0
v -14 -8 0
v -15 -9 0
v -16 -9 0
v -16 -8 0
v -15 -8 0
v -16 -9 0
v -17 -9 0
v -17 -8 0
v -16 -8 0
v -17 -9 0
v -18 -9 0
v -18 -8 0
v -17 -8 0
v -18 -9 0
v -19 -9 0
v -19 -8 0
v -18 -8 0
v -24 -9 0
v -25 -9 0
v -25 -8 0
v -24 -8 0
v -30 -9 0
v -31 -9 0
v -31 -8 0
v -30 -8 0
v -1 -10 0
v -2 -10 0
v -2 -9 0
v -1 -9 0
v -7 -10 0
v -8 -10 0
v -8 -9 0
v -7 -9 0
v -13 -10 0
v -14 -10 0
v -14 -9 0
v -13 -9 0
v -18 -10 0
v -19 -10 0
v -19 -9 0
v -18 -9 0
v -24 -10 0
v -25 -10 0
v -25 -9 0
v -24 -9 0
v -30 -10 0
v -31 -10 0
v -31 -9 0
v -30 -9 0
v -1 -11 0
v -2 -11 0
v -2 -10 0
v -1 -10 0
v -13 -11 0
v -14 -11 0
v -14 -10 0
v -13 -10 0
v -18 -11 0
v -19 -11 0
v -19 -10 0
v -18 -10 0
v -24 -11 0
v -25 -11 0
v -25 -10 0
v -24 -10 0
v -30 -11 0
v -31 -11 0
v -31 -10 0
v -30 -10 0
v -1 -12 0
v -2 -12 0
v -2 -11 0
v -1 -11 0
v -7 -12 0
v -8 -12 0
v -8 -11 0
v -7 -11 0
v -13 -12 0
v -14 -12 0
v -14 -11 0
v -13 -11 0
v -18 -12 0
v -19 -12 0
v -19 -11 0
v -18 -11 0
v -24 -12 0
v -25 -12 0
v -25 -11 0
v -24 -11 0
v -30 -12 0
v -31 -12 0
v -31 -11 0
v -30 -11 0
v -1 -13 0
v -2 -13 0
v -2 -12 0
v -1 -12 0
v -2 -13 0
v -3 -13 0
v -3 -12 0
v -2 -12 0
v -3 -13 0
v -4 -13 0
v -4 -12 0
v -3 -12 0
v -4 -13 0
v -5 -13 0
v -5 -12 0
v -4 -12 0
v -5 -13 0
v -6 -13 0
v -6 -12 0
v -5 -12 0
v -6 -13 0
v -7 -13 0
v -7 -12 0
v -6 -12 0
v -7 -13 0
v -8 -13 0
v -8 -12 0
v -7 -12 0
v -13 -13 0
v -14 -13 0
v -14 -12 0
v -13 -12 0
v -14 -13 0
v -15 -13 0
v -15 -12 0
v -14 -12 0
v -15 -13 0
v -16 -13 0
v -16 -12 0
v -15 -12 0
v -16 -13 0
v -17 -13 0
v -17 -12 0
v -16 -12 0
v -18 -13 0
v -19 -13 0
v -19 -12 0
v -18 -12 0
v -24 -13 0
v -25 -13 0
v -25 -12 0
v -24 -12 0
v -25 -13 0
v -26 -13 0
v -26 -12 0
v -25 -12 0
v -26 -13 0
v -27 -13 0
v -27 -12 0
v -26 -12 0
v -27 -13 0
v -28 -13 0
v -28 -12 0
v -27 -12 0
v -28 -13 0
v -29 -13 0
v -29 -12 0
v -28 -12 0
v -29 -13 0
v -30 -13 0
v -30 -12 0
v -29 -12 0
v -30 -13 0
v -31 -13 0
v -31 -12 0
v -30 -12 0
v -1 -19 0
v -2 -19 0
v -2 -18 0
v -1 -18 0
v -2 -19 0
v -3 -19 0
v -3 -18 0
v -2 -18 0
v -3 -19 0
v -4 -19 0
v -4 -18 0
v -3 -18 0
v -4 -19 0
v -5 -19 0
v -5 -18 0
v -4 -18 0
v -5 -19 0
v -6 -19 0
v -6 -18 0
v -5 -18 0
v -6 -19 0
v -7 -19 0
v -7 -18 0
v -6 -18 0
v -7 -19 0
v -8 -19 0
v -8 -18 0
v -7 -18 0
v -24 -19 0
v -25 -19 0
v -25 -18 0
v -24 -18 0
v -25 -19 0
v -26 -19 0
v -26 -18 0
v -25 -18 0
v -26 -19 0
v -27 -19 0
v -27 -18 0
v -26 -18 0
v -27 -19 0
v -28 -19 0
v -28 -18 0
v -27 -18 0
v -28 -19 0
v -29 -19 0
v -29 -18 0
v -28 -18 0
v -29 -19 0
v -30 -19 0
v -30 -18 0
v -29 -18 0
v -30 -19 0
v -31 -19 0
v -31 -18 0
v -30 -18 0
v -1 -20 0
v -2 -20 0
v -2 -19 0
v -1 -19 0
v -7 -20 0
v -8 -20 0
v -8 -19 0
v -7 -19 0
v -24 -20 0
v -25 -20 0
v -25 -19 0
v -24 -19 0
v -30 -20 0
v -31 -20 0
v -31 -19 0
v -30 -19 0
v -1 -21 0
v -2 -21 0
v -2 -20 0
v -1 -20 0
v -7 -21 0
v -8 -21 0
v -8 -20 0
v -7 -20 0
v -24 -21 0
v -25 -21 0
v -25 -20 0
v -24 -20 0
v -30 -21 0
v -31 -21 0
v -31 -20 0
v -30 -20 0
v -1 -22 0
v -2 -22 0
v -2 -21 0
v -1 -21 0
v -24 -22 0
v -25 -22 0
v -25 -21 0
v -24 -21 0
v -30 -22 0
v -31 -22 0
v -31 -21 0
v -30 -21 0
v -1 -23 0
v -2 -23 0
v -2 -22 0
v -1 -22 0
v -7 -23 0
v -8 -23 0
v -8 -22 0
v -7 -22 0
v -24 -23 0
v -25 -23 0
v -25 -22 0
v -24 -22 0
v -30 -23 0
v -31 -23 0
v -31 -22 0
v -30 -22 0
v -1 -24 0
v -2 -24 0
v -2 -23 0
v -1 -23 0
v -7 -24 0
v -8 -24 0
v -8 -23 0
v -7 -23 0
v -24 -24 0
v -25 -24 0
v -25 -23 0
v -24 -23 0
v -30 -24 0
v -31 -24 0
v -31 -23 0
v -30 -23 0
v -1 -25 0
v -2 -25 0
v -2 -24 0
v -1 -24 0
v -7 -25 0
v -8 -25 0
v -8 -24 0
v -7 -24 0
v -24 -25 0
v -25 -25 0
v -25 -24 0
v -24 -24 0
v -30 -25 0
v -31 -25 0
v -31 -24 0
v -30 -24 0
v -1 -26 0
v -2 -26 0
v -2 -25 0
v -1 -25 0
v -2 -26 0
v -3 -26 0
v -3 -25 0
v -2 -25 0
v -3 -26 0
v -4 -26 0
v -4 -25 0
v -3 -25 0
v -4 -26 0
v -5 -26 0
v -5 -25 0
v -4 -25 0
v -5 -26 0
v -6 -26 0
v -6 -25 0
v -5 -25 0
v -6 -26 0
v -7 -26 0
v -7 -25 0
v -6 -25 0
v -7 -26 0
v -8 -26 0
v -8 -25 0
v -7 -25 0
v -24 -26 0
v -25 -26 0
v -25 -25 0
v -24 -25 0
v -25 -26 0
v -26 -26 0
v -26 -25 0
v -25 -25 0
v -26 -26 0
v -27 -26 0
v -27 -25 0
v -26 -25 0
v -28 -26 0
v -29 -26 0
v -29 -25 0
v -28 -25 0
v -29 -26 0
v -30 -26 0
v -30 -25 0
v -29 -25 0
v -30 -26 0
v -31 -26 0
v -31 -25 0
v -30 -25 0
v -13 -32 0
v -14 -32 0
v -14 -31 0
v -13 -31 0
v -14 -32 0
v -15 -32 0
v -15 -31 0
v -14 -31 0
v -15 -32 0
v -16 -32 0
v -16 -31 0
v -15 -31 0
v -17 -32 0
v -18 -32 0
v -18 -31 0
v -17 -31 0
v -18 -32 0
v -19 -32 0
v -19 -31 0
v -18 -31 0
v -24 -32 0
v -25 -32 0
v -25 -31 0
v -24 -31 0
v -25 -32 0
v -26 -32 0
v -26 -31 0
v -25 -31 0
v -26 -32 0
v -27 -32 0
v -27 -31 0
v -26 -31 0
v -27 -32 0
v -28 -32 0
v -28 -31 0
v -27 -31 0
v -28 -32 0
v -29 -32 0
v -29 -31 0
v -28 -31 0
v -29 -32 0
v -30 -32 0
v -30 -31 0
v -29 -31 0
v -30 -32 0
v -31 -32 0
v -31 -31 0
v -30 -31 0
v -13 -33 0
v -14 -33 0
v -14 -32 0
v -13 -32 0
v -18 -33 0
v -19 -33 0
v -19 -32 0
v -18 -32 0
v -24 -33 0
v -25 -33 0
v -25 -32 0
v -24 -32 0
v -30 -33 0
v -31 -33 0
v -31 -32 0
v -30 -32 0
v -13 -34 0
v -14 -34 0
v -14 -33 0
v -13 -33 0
v -18 -34 0
v -19 -34 0
v -19 -33 0
v -18 -33 0
v -30 -34 0
v -31 -34 0
v -31 -33 0
v -30 -33 0
v -13 -35 0
v -14 -35 0
v -14 -34 0
v -13 -34 0
v -18 -35 0
v -19 -35 0
v -19 -34 0
v -18 -34 0
v -24 -35 0
v -25 -35 0
v -25 -34 0
v -24 -34 0
v -30 -35 0
v -31 -35 0
v -31 -34 0
v -30 -34 0
v -13 -36 0
v -14 -36 0
v -14 -35 0
v -13 -35 0
v -18 -36 0
v -19 -36 0
v -19 -35 0
v -18 -35 0
v -24 -36 0
v -25 -36 0
v -25 -35 0
v -24 -35 0
v -30 -36 0
v -31 -36 0
v -31 -35 0
v -30 -35 0
v -13 -37 0
v -14 -37 0
v -14 -36 0
v -13 -36 0
v -14 -37 0
v -15 -37 0
v -15 -36 0
v -14 -36 0
v -15 -37 0
v -16 -37 0
v -16 -36 0
v -15 -36 0
v -16 -37 0
v -17 -37 0
v -17 -36 0
v -16 -36 0
v -17 -37 0
v -18 -37 0
v -18 -36 0
v -17 -36 0
v -18 -37 0
v -19 -37 0
v -19 -36 0
v -18 -36 0
v -24 -37 0
v -25 -37 0
v -25 -36 0
v -24 -36 0
v -25 -37 0
v -26 -37 0
v -26 -36 0
v -25 -36 0
v -26 -37 0
v -27 -37 0
v -27 -36 0
v -26 -36 0
v -27 -37 0
v -28 -37 0
v -28 -36 0
v -27 -36 0
v -28 -37 0
v -29 -37 0
v -29 -36 0
v -28 -36 0
v -29 -37 0
v -30 -37 0
v -30 -36 0
v -29 -36 0
v -30 -37 0
v -31 -37 0
v -31 -36 0
v -30 -36 0
v -1 -43 0
v -2 -43 0
v -2 -42 0
v -1 -42 0
v -2 -43 0
v -3 -43 0
v -3 -42 0
v -2 -42 0
v -4 -43 0
v -5 -43 0
v -5 -42 0
v -4 -42 0
v -5 -43 0
v -6 -43 0
v -6 -42 0
v -5 -42 0
v -6 -43 0
v -7 -43 0
v -7 -42 0
v -6 -42 0
v -7 -43 0
v -8 -43 0
v -8 -42 0
v -7 -42 0
v -24 -43 0
v -25 -43 0
v -25 -42 0
v -24 -42 0
v -25 -43 0
v -26 -43 0
v -26 -42 0
v -25 -42 0
v -26 -43 0
v -27 -43 0
v -27 -42 0
v -26 -42 0
v -27 -43 0
v -28 -43 0
v -28 -42 0
v -27 -42 0
v -29 -43 0
v -30 -43 0
v -30 -42 0
v -29 -42 0
v -30 -43 0
v -31 -43 0
v -31 -42 0
v -30 -42 0
v -1 -44 0
v -2 -44 0
v -2 -43 0
v -1 -43 0
v -7 -44 0
v -8 -44 0
v -8 -43 0
v -7 -43 0
v -24 -44 0
v -25 -44 0
v -25 -43 0
v -24 -43 0
v -30 -44 0
v -31 -44 0
v -31 -43 0
v -30 -43 0
v -1 -45 0
v -2 -45 0
v -2 -44 0
v -1 -44 0
v -7 -45 0
v -8 -45 0
v -8 -44 0
v -7 -44 0
v -24 -45 0
v -25 -45 0
v -25 -44 0
v -24 -44 0
v -30 -45 0
v -31 -45 0
v -31 -44 0
v -30 -44 0
v -1 -46 0
v -2 -46 0
v -2 -45 0
v -1 -45 0
v -7 -46 0
v -8 -46 0
v -8 -45 0
v -7 -45 0
v -24 -46 0
v -25 -46 0
v -25 -45 0
v -24 -45 0
v -30 -46 0
v -31 -46 0
v -31 -45 0
v -30 -45 0
v -1 -47 0
v -2 -47 0
v -2 -46 0
v -1 -46 0
v -2 -47 0
v -3 -47 0
v -3 -46 0
v -2 -46 0
v -3 -47 0
v -4 -47 0
v -4 -46 0
v -3 -46 0
v -4 -47 0
v -5 -47 0
v -5 -46 0
v -4 -46 0
v -5 -47 0
v -6 -47 0
v -6 -46 0
v -5 -46 0
v -6 -47 0
v -7 -47 0
v -7 -46 0
v -6 -46 0
v -7 -47 0
v -8 -47 0
v -8 -46 0
v -7 -46 0
v -24 -47 0
v -25 -47 0
v -25 -46 0
v -24 -46 0
v -30 -47 0
v -31 -47 0
v -31 -46 0
v -30 -46 0

# Texture cooridinates (Count = 48)
vt 0 0.4513274
vt 0.02772964 0.4513274
vt 0.02772964 0.4985251
vt 0 0.4985251
vt 0.05892548 0.4513274
vt 0.08665511 0.4513274
vt 0.08665511 0.4985251
vt 0.05892548 0.4985251
vt 0.02946274 0.4513274
vt 0.05719237 0.4513274
vt 0.05719237 0.4985251
vt 0.02946274 0.4985251
vt 0.05892548 0.40118
vt 0.08665511 0.40118
vt 0.08665511 0.4483776
vt 0.05892548 0.4483776
vt 0.1767764 0.4513274
vt 0.2045061 0.4513274
vt 0.2045061 0.4985251
vt 0.1767764 0.4985251
vt 0.1473137 0.40118
vt 0.1750433 0.40118
vt 0.1750433 0.4483776
vt 0.1473137 0.4483776
vt 0.08838821 0.40118
vt 0.1161178 0.40118
vt 0.1161178 0.4483776
vt 0.08838821 0.4483776
vt 0.1473137 0.4513274
vt 0.1750433 0.4513274
vt 0.1750433 0.4985251
vt 0.1473137 0.4985251
vt 0.1767764 0.40118
vt 0.2045061 0.40118
vt 0.2045061 0.4483776
vt 0.1767764 0.4483776
vt 0.117851 0.40118
vt 0.1455806 0.40118
vt 0.1455806 0.4483776
vt 0.117851 0.4483776
vt 0 0.40118
vt 0.02772964 0.40118
vt 0.02772964 0.4483776
vt 0 0.4483776
vt 0.02946274 0.40118
vt 0.05719237 0.40118
vt 0.05719237 0.4483776
vt 0.02946274 0.4483776

# Normal
vn 0 0 -1

# Mesh description
g CityMap2.5_mesh_0004

# Faces
f 1/1/1 2/2/1 3/3/1 4/4/1
f 5/5/1 6/6/1 7/7/1 8/8/1
f 9/5/1 10/6/1 11/7/1 12/8/1
f 13/5/1 14/6/1 15/7/1 16/8/1
f 17/5/1 18/6/1 19/7/1 20/8/1
f 21/5/1 22/6/1 23/7/1 24/8/1
f 25/9/1 26/10/1 27/11/1 28/12/1
f 29/13/1 30/14/1 31/15/1 32/16/1
f 33/13/1 34/14/1 35/15/1 36/16/1
f 37/13/1 38/14/1 39/15/1 40/16/1
f 41/13/1 42/14/1 43/15/1 44/16/1
f 45/17/1 46/18/1 47/19/1 48/20/1
f 49/13/1 50/14/1 51/15/1 52/16/1
f 53/13/1 54/14/1 55/15/1 56/16/1
f 57/21/1 58/22/1 59/23/1 60/24/1
f 61/13/1 62/14/1 63/15/1 64/16/1
f 65/25/1 66/26/1 67/27/1 68/28/1
f 69/29/1 70/30/1 71/31/1 72/32/1
f 73/33/1 74/34/1 75/35/1 76/36/1
f 77/5/1 78/6/1 79/7/1 80/8/1
f 81/5/1 82/6/1 83/7/1 84/8/1
f 85/37/1 86/38/1 87/39/1 88/40/1
f 89/1/1 90/2/1 91/3/1 92/4/1
f 93/5/1 94/6/1 95/7/1 96/8/1
f 97/5/1 98/6/1 99/7/1 100/8/1
f 101/5/1 102/6/1 103/7/1 104/8/1
f 105/5/1 106/6/1 107/7/1 108/8/1
f 109/5/1 110/6/1 111/7/1 112/8/1
f 113/9/1 114/10/1 115/11/1 116/12/1
f 117/1/1 118/2/1 119/3/1 120/4/1
f 121/5/1 122/6/1 123/7/1 124/8/1
f 125/5/1 126/6/1 127/7/1 128/8/1
f 129/5/1 130/6/1 131/7/1 132/8/1
f 133/5/1 134/6/1 135/7/1 136/8/1
f 137/9/1 138/10/1 139/11/1 140/12/1
f 141/13/1 142/14/1 143/15/1 144/16/1
f 145/13/1 146/14/1 147/15/1 148/16/1
f 149/13/1 150/14/1 151/15/1 152/16/1
f 153/17/1 154/18/1 155/19/1 156/20/1
f 157/13/1 158/14/1 159/15/1 160/16/1
f 161/13/1 162/14/1 163/15/1 164/16/1
f 165/13/1 166/14/1 167/15/1 168/16/1
f 169/13/1 170/14/1 171/15/1 172/16/1
f 173/13/1 174/14/1 175/15/1 176/16/1
f 177/13/1 178/14/1 179/15/1 180/16/1
f 181/13/1 182/14/1 183/15/1 184/16/1
f 185/13/1 186/14/1 187/15/1 188/16/1
f 189/13/1 190/14/1 191/15/1 192/16/1
f 193/13/1 194/14/1 195/15/1 196/16/1
f 197/21/1 198/22/1 199/23/1 200/24/1
f 201/13/1 202/14/1 203/15/1 204/16/1
f 205/13/1 206/14/1 207/15/1 208/16/1
f 209/13/1 210/14/1 211/15/1 212/16/1
f 213/13/1 214/14/1 215/15/1 216/16/1
f 217/41/1 218/42/1 219/43/1 220/44/1
f 221/5/1 222/6/1 223/7/1 224/8/1
f 225/5/1 226/6/1 227/7/1 228/8/1
f 229/5/1 230/6/1 231/7/1 232/8/1
f 233/5/1 234/6/1 235/7/1 236/8/1
f 237/5/1 238/6/1 239/7/1 240/8/1
f 241/45/1 242/46/1 243/47/1 244/48/1
f 245/41/1 246/42/1 247/43/1 248/44/1
f 249/5/1 250/6/1 251/7/1 252/8/1
f 253/5/1 254/6/1 255/7/1 256/8/1
f 257/29/1 258/30/1 259/31/1 260/32/1
f 261/17/1 262/18/1 263/19/1 264/20/1
f 265/41/1 266/42/1 267/43/1 268/44/1
f 269/5/1 270/6/1 271/7/1 272/8/1
f 273/5/1 274/6/1 275/7/1 276/8/1
f 277/5/1 278/6/1 279/7/1 280/8/1
f 281/5/1 282/6/1 283/7/1 284/8/1
f 285/5/1 286/6/1 287/7/1 288/8/1
f 289/45/1 290/46/1 291/47/1 292/48/1
f 293/1/1 294/2/1 295/3/1 296/4/1
f 297/5/1 298/6/1 299/7/1 300/8/1
f 301/5/1 302/6/1 303/7/1 304/8/1
f 305/5/1 306/6/1 307/7/1 308/8/1
f 309/5/1 310/6/1 311/7/1 312/8/1
f 313/5/1 314/6/1 315/7/1 316/8/1
f 317/9/1 318/10/1 319/11/1 320/12/1
f 321/1/1 322/2/1 323/3/1 324/4/1
f 325/5/1 326/6/1 327/7/1 328/8/1
f 329/5/1 330/6/1 331/7/1 332/8/1
f 333/5/1 334/6/1 335/7/1 336/8/1
f 337/5/1 338/6/1 339/7/1 340/8/1
f 341/5/1 342/6/1 343/7/1 344/8/1
f 345/9/1 346/10/1 347/11/1 348/12/1
f 349/13/1 350/14/1 351/15/1 352/16/1
f 353/13/1 354/14/1 355/15/1 356/16/1
f 357/13/1 358/14/1 359/15/1 360/16/1
f 361/13/1 362/14/1 363/15/1 364/16/1
f 365/13/1 366/14/1 367/15/1 368/16/1
f 369/17/1 370/18/1 371/19/1 372/20/1
f 373/13/1 374/14/1 375/15/1 376/16/1
f 377/13/1 378/14/1 379/15/1 380/16/1
f 381/13/1 382/14/1 383/15/1 384/16/1
f 385/13/1 386/14/1 387/15/1 388/16/1
f 389/13/1 390/14/1 391/15/1 392/16/1
f 393/13/1 394/14/1 395/15/1 396/16/1
f 397/21/1 398/22/1 399/23/1 400/24/1
f 401/13/1 402/14/1 403/15/1 404/16/1
f 405/13/1 406/14/1 407/15/1 408/16/1
f 409/13/1 410/14/1 411/15/1 412/16/1
f 413/13/1 414/14/1 415/15/1 416/16/1
f 417/13/1 418/14/1 419/15/1 420/16/1
f 421/13/1 422/14/1 423/15/1 424/16/1
f 425/13/1 426/14/1 427/15/1 428/16/1
f 429/13/1 430/14/1 431/15/1 432/16/1
f 433/13/1 434/14/1 435/15/1 436/16/1
f 437/13/1 438/14/1 439/15/1 440/16/1
f 441/41/1 442/42/1 443/43/1 444/44/1
f 445/5/1 446/6/1 447/7/1 448/8/1
f 449/5/1 450/6/1 451/7/1 452/8/1
f 453/5/1 454/6/1 455/7/1 456/8/1
f 457/5/1 458/6/1 459/7/1 460/8/1
f 461/5/1 462/6/1 463/7/1 464/8/1
f 465/45/1 466/46/1 467/47/1 468/48/1
f 469/41/1 470/42/1 471/43/1 472/44/1
f 473/5/1 474/6/1 475/7/1 476/8/1
f 477/29/1 478/30/1 479/31/1 480/32/1
f 481/33/1 482/34/1 483/35/1 484/36/1
f 485/5/1 486/6/1 487/7/1 488/8/1
f 489/45/1 490/46/1 491/47/1 492/48/1
f 493/1/1 494/2/1 495/3/1 496/4/1
f 497/5/1 498/6/1 499/7/1 500/8/1
f 501/29/1 502/30/1 503/31/1 504/32/1
f 505/33/1 506/34/1 507/35/1 508/36/1
f 509/9/1 510/10/1 511/11/1 512/12/1
f 513/1/1 514/2/1 515/3/1 516/4/1
f 517/5/1 518/6/1 519/7/1 520/8/1
f 521/5/1 522/6/1 523/7/1 524/8/1
f 525/5/1 526/6/1 527/7/1 528/8/1
f 529/5/1 530/6/1 531/7/1 532/8/1
f 533/5/1 534/6/1 535/7/1 536/8/1
f 537/9/1 538/10/1 539/11/1 540/12/1
f 541/13/1 542/14/1 543/15/1 544/16/1
f 545/13/1 546/14/1 547/15/1 548/16/1
f 549/17/1 550/18/1 551/19/1 552/20/1
f 553/13/1 554/14/1 555/15/1 556/16/1
f 557/13/1 558/14/1 559/15/1 560/16/1
f 561/13/1 562/14/1 563/15/1 564/16/1
f 565/13/1 566/14/1 567/15/1 568/16/1
f 569/13/1 570/14/1 571/15/1 572/16/1
f 573/13/1 574/14/1 575/15/1 576/16/1
f 577/21/1 578/22/1 579/23/1 580/24/1
f 581/13/1 582/14/1 583/15/1 584/16/1
f 585/13/1 586/14/1 587/15/1 588/16/1
f 589/13/1 590/14/1 591/15/1 592/16/1
f 593/13/1 594/14/1 595/15/1 596/16/1
f 597/13/1 598/14/1 599/15/1 600/16/1
f 601/41/1 602/42/1 603/43/1 604/44/1
f 605/5/1 606/6/1 607/7/1 608/8/1
f 609/5/1 610/6/1 611/7/1 612/8/1
f 613/5/1 614/6/1 615/7/1 616/8/1
f 617/5/1 618/6/1 619/7/1 620/8/1
f 621/45/1 622/46/1 623/47/1 624/48/1
f 625/41/1 626/42/1 627/43/1 628/44/1
f 629/5/1 630/6/1 631/7/1 632/8/1
f 633/5/1 634/6/1 635/7/1 636/8/1
f 637/5/1 638/6/1 639/7/1 640/8/1
f 641/5/1 642/6/1 643/7/1 644/8/1
f 645/5/1 646/6/1 647/7/1 648/8/1
f 649/45/1 650/46/1 651/47/1 652/48/1
f 653/1/1 654/2/1 655/3/1 656/4/1
f 657/29/1 658/30/1 659/31/1 660/32/1
f 661/33/1 662/34/1 663/35/1 664/36/1
f 665/5/1 666/6/1 667/7/1 668/8/1
f 669/5/1 670/6/1 671/7/1 672/8/1
f 673/9/1 674/10/1 675/11/1 676/12/1
f 677/1/1 678/2/1 679/3/1 680/4/1
f 681/5/1 682/6/1 683/7/1 684/8/1
f 685/5/1 686/6/1 687/7/1 688/8/1
f 689/29/1 690/30/1 691/31/1 692/32/1
f 693/33/1 694/34/1 695/35/1 696/36/1
f 697/9/1 698/10/1 699/11/1 700/12/1
f 701/13/1 702/14/1 703/15/1 704/16/1
f 705/13/1 706/14/1 707/15/1 708/16/1
f 709/13/1 710/14/1 711/15/1 712/16/1
f 713/13/1 714/14/1 715/15/1 716/16/1
f 717/13/1 718/14/1 719/15/1 720/16/1
f 721/13/1 722/14/1 723/15/1 724/16/1
f 725/13/1 726/14/1 727/15/1 728/16/1
f 729/13/1 730/14/1 731/15/1 732/16/1
f 733/13/1 734/14/1 735/15/1 736/16/1
f 737/13/1 738/14/1 739/15/1 740/16/1
f 741/13/1 742/14/1 743/15/1 744/16/1
f 745/13/1 746/14/1 747/15/1 748/16/1
f 749/41/1 750/42/1 751/43/1 752/44/1
f 753/5/1 754/6/1 755/7/1 756/8/1
f 757/5/1 758/6/1 759/7/1 760/8/1
f 761/5/1 762/6/1 763/7/1 764/8/1
f 765/5/1 766/6/1 767/7/1 768/8/1
f 769/5/1 770/6/1 771/7/1 772/8/1
f 773/45/1 774/46/1 775/47/1 776/48/1
f 777/13/1 778/14/1 779/15/1 780/16/1
f 781/13/1 782/14/1 783/15/1 784/16/1

