# Tiled2Unity generated file. Do not modify by hand.
# Wavefront file for 'CityMap2.5_mesh_0005.obj'

# Vertices (Count = 404)
v -1 -2 0
v -2 -2 0
v -2 -1 0
v -1 -1 0
v -5 -2 0
v -6 -2 0
v -6 -1 0
v -5 -1 0
v -14 -2 0
v -15 -2 0
v -15 -1 0
v -14 -1 0
v -16 -2 0
v -17 -2 0
v -17 -1 0
v -16 -1 0
v -17 -2 0
v -18 -2 0
v -18 -1 0
v -17 -1 0
v -3 -3 0
v -4 -3 0
v -4 -2 0
v -3 -2 0
v -16 -3 0
v -17 -3 0
v -17 -2 0
v -16 -2 0
v -17 -3 0
v -18 -3 0
v -18 -2 0
v -17 -2 0
v -25 -3 0
v -26 -3 0
v -26 -2 0
v -25 -2 0
v -26 -3 0
v -27 -3 0
v -27 -2 0
v -26 -2 0
v -27 -3 0
v -28 -3 0
v -28 -2 0
v -27 -2 0
v -28 -3 0
v -29 -3 0
v -29 -2 0
v -28 -2 0
v -29 -3 0
v -30 -3 0
v -30 -2 0
v -29 -2 0
v -27 -5 0
v -28 -5 0
v -28 -4 0
v -27 -4 0
v -28 -5 0
v -29 -5 0
v -29 -4 0
v -28 -4 0
v -29 -5 0
v -30 -5 0
v -30 -4 0
v -29 -4 0
v -27 -6 0
v -28 -6 0
v -28 -5 0
v -27 -5 0
v -28 -6 0
v -29 -6 0
v -29 -5 0
v -28 -5 0
v -29 -6 0
v -30 -6 0
v -30 -5 0
v -29 -5 0
v -27 -7 0
v -28 -7 0
v -28 -6 0
v -27 -6 0
v -28 -7 0
v -29 -7 0
v -29 -6 0
v -28 -6 0
v -29 -7 0
v -30 -7 0
v -30 -6 0
v -29 -6 0
v -27 -9 0
v -28 -9 0
v -28 -8 0
v -27 -8 0
v -29 -9 0
v -30 -9 0
v -30 -8 0
v -29 -8 0
v -2 -10 0
v -3 -10 0
v -3 -9 0
v -2 -9 0
v -3 -10 0
v -4 -10 0
v -4 -9 0
v -3 -9 0
v -6 -10 0
v -7 -10 0
v -7 -9 0
v -6 -9 0
v -14 -10 0
v -15 -10 0
v -15 -9 0
v -14 -9 0
v -15 -10 0
v -16 -10 0
v -16 -9 0
v -15 -9 0
v -16 -10 0
v -17 -10 0
v -17 -9 0
v -16 -9 0
v -17 -10 0
v -18 -10 0
v -18 -9 0
v -17 -9 0
v -27 -10 0
v -28 -10 0
v -28 -9 0
v -27 -9 0
v -29 -10 0
v -30 -10 0
v -30 -9 0
v -29 -9 0
v -2 -11 0
v -3 -11 0
v -3 -10 0
v -2 -10 0
v -14 -11 0
v -15 -11 0
v -15 -10 0
v -14 -10 0
v -17 -11 0
v -18 -11 0
v -18 -10 0
v -17 -10 0
v -27 -11 0
v -28 -11 0
v -28 -10 0
v -27 -10 0
v -29 -11 0
v -30 -11 0
v -30 -10 0
v -29 -10 0
v -2 -12 0
v -3 -12 0
v -3 -11 0
v -2 -11 0
v -14 -14 0
v -15 -14 0
v -15 -13 0
v -14 -13 0
v -15 -14 0
v -16 -14 0
v -16 -13 0
v -15 -13 0
v -13 -19 0
v -14 -19 0
v -14 -18 0
v -13 -18 0
v -14 -19 0
v -15 -19 0
v -15 -18 0
v -14 -18 0
v -18 -19 0
v -19 -19 0
v -19 -18 0
v -18 -18 0
v -3 -20 0
v -4 -20 0
v -4 -19 0
v -3 -19 0
v -4 -20 0
v -5 -20 0
v -5 -19 0
v -4 -19 0
v -13 -20 0
v -14 -20 0
v -14 -19 0
v -13 -19 0
v -14 -20 0
v -15 -20 0
v -15 -19 0
v -14 -19 0
v -25 -20 0
v -26 -20 0
v -26 -19 0
v -25 -19 0
v -26 -20 0
v -27 -20 0
v -27 -19 0
v -26 -19 0
v -27 -20 0
v -28 -20 0
v -28 -19 0
v -27 -19 0
v -28 -20 0
v -29 -20 0
v -29 -19 0
v -28 -19 0
v -3 -21 0
v -4 -21 0
v -4 -20 0
v -3 -20 0
v -4 -21 0
v -5 -21 0
v -5 -20 0
v -4 -20 0
v -17 -21 0
v -18 -21 0
v -18 -20 0
v -17 -20 0
v -3 -22 0
v -4 -22 0
v -4 -21 0
v -3 -21 0
v -4 -22 0
v -5 -22 0
v -5 -21 0
v -4 -21 0
v -14 -22 0
v -15 -22 0
v -15 -21 0
v -14 -21 0
v -18 -22 0
v -19 -22 0
v -19 -21 0
v -18 -21 0
v -17 -23 0
v -18 -23 0
v -18 -22 0
v -17 -22 0
v -18 -23 0
v -19 -23 0
v -19 -22 0
v -18 -22 0
v -13 -24 0
v -14 -24 0
v -14 -23 0
v -13 -23 0
v -17 -24 0
v -18 -24 0
v -18 -23 0
v -17 -23 0
v -18 -24 0
v -19 -24 0
v -19 -23 0
v -18 -23 0
v -2 -25 0
v -3 -25 0
v -3 -24 0
v -2 -24 0
v -3 -25 0
v -4 -25 0
v -4 -24 0
v -3 -24 0
v -4 -25 0
v -5 -25 0
v -5 -24 0
v -4 -24 0
v -5 -25 0
v -6 -25 0
v -6 -24 0
v -5 -24 0
v -6 -25 0
v -7 -25 0
v -7 -24 0
v -6 -24 0
v -14 -25 0
v -15 -25 0
v -15 -24 0
v -14 -24 0
v -17 -25 0
v -18 -25 0
v -18 -24 0
v -17 -24 0
v -18 -26 0
v -19 -26 0
v -19 -25 0
v -18 -25 0
v -14 -33 0
v -15 -33 0
v -15 -32 0
v -14 -32 0
v -26 -33 0
v -27 -33 0
v -27 -32 0
v -26 -32 0
v -27 -33 0
v -28 -33 0
v -28 -32 0
v -27 -32 0
v -28 -33 0
v -29 -33 0
v -29 -32 0
v -28 -32 0
v -14 -34 0
v -15 -34 0
v -15 -33 0
v -14 -33 0
v -17 -34 0
v -18 -34 0
v -18 -33 0
v -17 -33 0
v -19 -34 0
v -20 -34 0
v -20 -33 0
v -19 -33 0
v -14 -35 0
v -15 -35 0
v -15 -34 0
v -14 -34 0
v -17 -35 0
v -18 -35 0
v -18 -34 0
v -17 -34 0
v -19 -35 0
v -20 -35 0
v -20 -34 0
v -19 -34 0
v -14 -36 0
v -15 -36 0
v -15 -35 0
v -14 -35 0
v -17 -36 0
v -18 -36 0
v -18 -35 0
v -17 -35 0
v -25 -36 0
v -26 -36 0
v -26 -35 0
v -25 -35 0
v -26 -36 0
v -27 -36 0
v -27 -35 0
v -26 -35 0
v -27 -36 0
v -28 -36 0
v -28 -35 0
v -27 -35 0
v -28 -36 0
v -29 -36 0
v -29 -35 0
v -28 -35 0
v -29 -36 0
v -30 -36 0
v -30 -35 0
v -29 -35 0
v -5 -44 0
v -6 -44 0
v -6 -43 0
v -5 -43 0
v -6 -44 0
v -7 -44 0
v -7 -43 0
v -6 -43 0
v -6 -45 0
v -7 -45 0
v -7 -44 0
v -6 -44 0
v -25 -45 0
v -26 -45 0
v -26 -44 0
v -25 -44 0
v -6 -46 0
v -7 -46 0
v -7 -45 0
v -6 -45 0
v -16 -46 0
v -17 -46 0
v -17 -45 0
v -16 -45 0
v -25 -46 0
v -26 -46 0
v -26 -45 0
v -25 -45 0
v -25 -47 0
v -26 -47 0
v -26 -46 0
v -25 -46 0
v -27 -47 0
v -28 -47 0
v -28 -46 0
v -27 -46 0
v -28 -47 0
v -29 -47 0
v -29 -46 0
v -28 -46 0
v -29 -47 0
v -30 -47 0
v -30 -46 0
v -29 -46 0
v -15 -48 0
v -16 -48 0
v -16 -47 0
v -15 -47 0

# Texture cooridinates (Count = 148)
vt 0.5892547 0.6017699
vt 0.6169844 0.6017699
vt 0.6169844 0.6489676
vt 0.5892547 0.6489676
vt 0.677643 0.6017699
vt 0.7053726 0.6017699
vt 0.7053726 0.6489676
vt 0.677643 0.6489676
vt 0.6187175 0.6519174
vt 0.6464471 0.6519174
vt 0.6464471 0.699115
vt 0.6187175 0.699115
vt 0.6481802 0.6519174
vt 0.6759099 0.6519174
vt 0.6759099 0.699115
vt 0.6481802 0.699115
vt 0.6187175 0.6017699
vt 0.6464471 0.6017699
vt 0.6464471 0.6489676
vt 0.6187175 0.6489676
vt 0.6481802 0.6017699
vt 0.6759099 0.6017699
vt 0.6759099 0.6489676
vt 0.6481802 0.6489676
vt 0.7642981 0.4985251
vt 0.7365685 0.4985251
vt 0.7365685 0.4513274
vt 0.7642981 0.4513274
vt 0.7642981 0.4483776
vt 0.7365685 0.4483776
vt 0.7365685 0.40118
vt 0.7642981 0.40118
vt 0.7053726 0.4483776
vt 0.677643 0.4483776
vt 0.677643 0.40118
vt 0.7053726 0.40118
vt 0.4696707 0.04719764
vt 0.4419411 0.04719764
vt 0.4419411 0
vt 0.4696707 0
vt 0.5892547 0.1504425
vt 0.6169844 0.1504425
vt 0.6169844 0.1976401
vt 0.5892547 0.1976401
vt 0.6187175 0.1504425
vt 0.6464471 0.1504425
vt 0.6464471 0.1976401
vt 0.6187175 0.1976401
vt 0.6481802 0.1504425
vt 0.6759099 0.1504425
vt 0.6759099 0.1976401
vt 0.6481802 0.1976401
vt 0.440208 0.05014747
vt 0.440208 0.09734511
vt 0.4124783 0.09734511
vt 0.4124783 0.05014747
vt 0.6169844 0.05014747
vt 0.6169844 0.09734511
vt 0.5892547 0.09734511
vt 0.5892547 0.05014747
vt 0.5303293 0.09734511
vt 0.5303293 0.05014747
vt 0.5580589 0.05014747
vt 0.5580589 0.09734511
vt 0.677643 0.100295
vt 0.7053726 0.100295
vt 0.7053726 0.1474926
vt 0.677643 0.1474926
vt 0.6169844 0.8023599
vt 0.6169844 0.8495575
vt 0.5892547 0.8495575
vt 0.5892547 0.8023599
vt 0.6169844 0.8525074
vt 0.6169844 0.899705
vt 0.5892547 0.899705
vt 0.5892547 0.8525074
vt 0.6169844 0.9026549
vt 0.6169844 0.9498525
vt 0.5892547 0.9498525
vt 0.5892547 0.9026549
vt 0.4696707 0.05014747
vt 0.4696707 0.09734511
vt 0.4419411 0.09734511
vt 0.4419411 0.05014747
vt 0.6464471 0.05014747
vt 0.6464471 0.09734511
vt 0.6187175 0.09734511
vt 0.6187175 0.05014747
vt 0.7071057 0.1504425
vt 0.7348353 0.1504425
vt 0.7348353 0.1976401
vt 0.7071057 0.1976401
vt 0.6759099 0.05014747
vt 0.6759099 0.09734511
vt 0.6481802 0.09734511
vt 0.6481802 0.05014747
vt 0.4991334 0.05014747
vt 0.4991334 0.09734511
vt 0.4714038 0.09734511
vt 0.4714038 0.05014747
vt 0.5892547 0.7522124
vt 0.6169844 0.7522124
vt 0.6169844 0.79941
vt 0.5892547 0.79941
vt 0.6187175 0.5516224
vt 0.6464471 0.5516224
vt 0.6464471 0.5988201
vt 0.6187175 0.5988201
vt 0.4991334 0.04719764
vt 0.4714038 0.04719764
vt 0.4714038 0
vt 0.4991334 0
vt 0.559792 0.5516224
vt 0.5875217 0.5516224
vt 0.5875217 0.5988201
vt 0.559792 0.5988201
vt 0.677643 0.6519174
vt 0.7053726 0.6519174
vt 0.7053726 0.699115
vt 0.677643 0.699115
vt 0.5285962 0
vt 0.5285962 0.04719764
vt 0.5008665 0.04719764
vt 0.5008665 0
vt 0.559792 0.05014747
vt 0.5875217 0.05014747
vt 0.5875217 0.09734511
vt 0.559792 0.09734511
vt 0.7660312 0.4513274
vt 0.7937608 0.4513274
vt 0.7937608 0.4985251
vt 0.7660312 0.4985251
vt 0.7053726 0.8495575
vt 0.677643 0.8495575
vt 0.677643 0.8023599
vt 0.7053726 0.8023599
vt 0.7053726 0.899705
vt 0.677643 0.899705
vt 0.677643 0.8525074
vt 0.7053726 0.8525074
vt 0.7053726 0.9498525
vt 0.677643 0.9498525
vt 0.677643 0.9026549
vt 0.7053726 0.9026549
vt 0.6481802 0.5516224
vt 0.6759099 0.5516224
vt 0.6759099 0.5988201
vt 0.6481802 0.5988201

# Normal
vn 0 0 -1

# Mesh description
g CityMap2.5_mesh_0005

# Faces
f 1/1/1 2/2/1 3/3/1 4/4/1
f 5/1/1 6/2/1 7/3/1 8/4/1
f 9/5/1 10/6/1 11/7/1 12/8/1
f 13/9/1 14/10/1 15/11/1 16/12/1
f 17/13/1 18/14/1 19/15/1 20/16/1
f 21/5/1 22/6/1 23/7/1 24/8/1
f 25/17/1 26/18/1 27/19/1 28/20/1
f 29/21/1 30/22/1 31/23/1 32/24/1
f 33/25/1 34/26/1 35/27/1 36/28/1
f 37/29/1 38/30/1 39/31/1 40/32/1
f 41/33/1 42/34/1 43/35/1 44/36/1
f 45/33/1 46/34/1 47/35/1 48/36/1
f 49/33/1 50/34/1 51/35/1 52/36/1
f 53/37/1 54/38/1 55/39/1 56/40/1
f 57/37/1 58/38/1 59/39/1 60/40/1
f 61/37/1 62/38/1 63/39/1 64/40/1
f 65/41/1 66/42/1 67/43/1 68/44/1
f 69/45/1 70/46/1 71/47/1 72/48/1
f 73/49/1 74/50/1 75/51/1 76/52/1
f 77/39/1 78/40/1 79/37/1 80/38/1
f 81/39/1 82/40/1 83/37/1 84/38/1
f 85/39/1 86/40/1 87/37/1 88/38/1
f 89/53/1 90/54/1 91/55/1 92/56/1
f 93/57/1 94/58/1 95/59/1 96/60/1
f 97/57/1 98/58/1 99/59/1 100/60/1
f 101/61/1 102/62/1 103/63/1 104/64/1
f 105/65/1 106/66/1 107/67/1 108/68/1
f 109/69/1 110/70/1 111/71/1 112/72/1
f 113/73/1 114/74/1 115/75/1 116/76/1
f 117/77/1 118/78/1 119/79/1 120/80/1
f 121/57/1 122/58/1 123/59/1 124/60/1
f 125/81/1 126/82/1 127/83/1 128/84/1
f 129/85/1 130/86/1 131/87/1 132/88/1
f 133/85/1 134/86/1 135/87/1 136/88/1
f 137/89/1 138/90/1 139/91/1 140/92/1
f 141/93/1 142/94/1 143/95/1 144/96/1
f 145/97/1 146/98/1 147/99/1 148/100/1
f 149/93/1 150/94/1 151/95/1 152/96/1
f 153/93/1 154/94/1 155/95/1 156/96/1
f 157/101/1 158/102/1 159/103/1 160/104/1
f 161/101/1 162/102/1 163/103/1 164/104/1
f 165/9/1 166/10/1 167/11/1 168/12/1
f 169/13/1 170/14/1 171/15/1 172/16/1
f 173/105/1 174/106/1 175/107/1 176/108/1
f 177/109/1 178/110/1 179/111/1 180/112/1
f 181/109/1 182/110/1 183/111/1 184/112/1
f 185/17/1 186/18/1 187/19/1 188/20/1
f 189/21/1 190/22/1 191/23/1 192/24/1
f 193/60/1 194/57/1 195/58/1 196/59/1
f 197/88/1 198/85/1 199/86/1 200/87/1
f 201/88/1 202/85/1 203/86/1 204/87/1
f 205/96/1 206/93/1 207/94/1 208/95/1
f 209/41/1 210/42/1 211/43/1 212/44/1
f 213/49/1 214/50/1 215/51/1 216/52/1
f 217/113/1 218/114/1 219/115/1 220/116/1
f 221/111/1 222/112/1 223/109/1 224/110/1
f 225/111/1 226/112/1 227/109/1 228/110/1
f 229/5/1 230/6/1 231/7/1 232/8/1
f 233/5/1 234/6/1 235/7/1 236/8/1
f 237/9/1 238/10/1 239/11/1 240/12/1
f 241/13/1 242/14/1 243/15/1 244/16/1
f 245/105/1 246/106/1 247/107/1 248/108/1
f 249/17/1 250/18/1 251/19/1 252/20/1
f 253/21/1 254/22/1 255/23/1 256/24/1
f 257/35/1 258/36/1 259/33/1 260/34/1
f 261/27/1 262/28/1 263/25/1 264/26/1
f 265/35/1 266/36/1 267/33/1 268/34/1
f 269/31/1 270/32/1 271/29/1 272/30/1
f 273/35/1 274/36/1 275/33/1 276/34/1
f 277/117/1 278/118/1 279/119/1 280/120/1
f 281/105/1 282/106/1 283/107/1 284/108/1
f 285/5/1 286/6/1 287/7/1 288/8/1
f 289/28/1 290/25/1 291/26/1 292/27/1
f 293/121/1 294/122/1 295/123/1 296/124/1
f 297/125/1 298/126/1 299/127/1 300/128/1
f 301/123/1 302/124/1 303/121/1 304/122/1
f 305/32/1 306/29/1 307/30/1 308/31/1
f 309/122/1 310/123/1 311/124/1 312/121/1
f 313/101/1 314/102/1 315/103/1 316/104/1
f 317/36/1 318/33/1 319/34/1 320/35/1
f 321/65/1 322/66/1 323/67/1 324/68/1
f 325/101/1 326/102/1 327/103/1 328/104/1
f 329/36/1 330/33/1 331/34/1 332/35/1
f 333/124/1 334/121/1 335/122/1 336/123/1
f 337/35/1 338/36/1 339/33/1 340/34/1
f 341/27/1 342/28/1 343/25/1 344/26/1
f 345/129/1 346/130/1 347/131/1 348/132/1
f 349/31/1 350/32/1 351/29/1 352/30/1
f 353/35/1 354/36/1 355/33/1 356/34/1
f 357/89/1 358/90/1 359/91/1 360/92/1
f 361/133/1 362/134/1 363/135/1 364/136/1
f 365/137/1 366/138/1 367/139/1 368/140/1
f 369/109/1 370/110/1 371/111/1 372/112/1
f 373/141/1 374/142/1 375/143/1 376/144/1
f 377/105/1 378/106/1 379/107/1 380/108/1
f 381/125/1 382/126/1 383/127/1 384/128/1
f 385/111/1 386/112/1 387/109/1 388/110/1
f 389/27/1 390/28/1 391/25/1 392/26/1
f 393/129/1 394/130/1 395/131/1 396/132/1
f 397/31/1 398/32/1 399/29/1 400/30/1
f 401/145/1 402/146/1 403/147/1 404/148/1

