# Tiled2Unity generated file. Do not modify by hand.
# Wavefront file for 'SubUrbMap_mesh_0005.obj'

# Vertices (Count = 188)
v -3 -3 0
v -4 -3 0
v -4 -2 0
v -3 -2 0
v -4 -3 0
v -5 -3 0
v -5 -2 0
v -4 -2 0
v -5 -3 0
v -6 -3 0
v -6 -2 0
v -5 -2 0
v -14 -3 0
v -15 -3 0
v -15 -2 0
v -14 -2 0
v -15 -3 0
v -16 -3 0
v -16 -2 0
v -15 -2 0
v -16 -3 0
v -17 -3 0
v -17 -2 0
v -16 -2 0
v -29 -3 0
v -30 -3 0
v -30 -2 0
v -29 -2 0
v -30 -3 0
v -31 -3 0
v -31 -2 0
v -30 -2 0
v -3 -4 0
v -4 -4 0
v -4 -3 0
v -3 -3 0
v -4 -4 0
v -5 -4 0
v -5 -3 0
v -4 -3 0
v -5 -4 0
v -6 -4 0
v -6 -3 0
v -5 -3 0
v -16 -4 0
v -17 -4 0
v -17 -3 0
v -16 -3 0
v -29 -4 0
v -30 -4 0
v -30 -3 0
v -29 -3 0
v -30 -4 0
v -31 -4 0
v -31 -3 0
v -30 -3 0
v -3 -5 0
v -4 -5 0
v -4 -4 0
v -3 -4 0
v -4 -5 0
v -5 -5 0
v -5 -4 0
v -4 -4 0
v -5 -5 0
v -6 -5 0
v -6 -4 0
v -5 -4 0
v -13 -5 0
v -14 -5 0
v -14 -4 0
v -13 -4 0
v -14 -5 0
v -15 -5 0
v -15 -4 0
v -14 -4 0
v -15 -5 0
v -16 -5 0
v -16 -4 0
v -15 -4 0
v -16 -5 0
v -17 -5 0
v -17 -4 0
v -16 -4 0
v -21 -7 0
v -22 -7 0
v -22 -6 0
v -21 -6 0
v -22 -7 0
v -23 -7 0
v -23 -6 0
v -22 -6 0
v -21 -8 0
v -22 -8 0
v -22 -7 0
v -21 -7 0
v -22 -8 0
v -23 -8 0
v -23 -7 0
v -22 -7 0
v -14 -17 0
v -15 -17 0
v -15 -16 0
v -14 -16 0
v -15 -17 0
v -16 -17 0
v -16 -16 0
v -15 -16 0
v -16 -17 0
v -17 -17 0
v -17 -16 0
v -16 -16 0
v -17 -17 0
v -18 -17 0
v -18 -16 0
v -17 -16 0
v -14 -18 0
v -15 -18 0
v -15 -17 0
v -14 -17 0
v -14 -19 0
v -15 -19 0
v -15 -18 0
v -14 -18 0
v -14 -20 0
v -15 -20 0
v -15 -19 0
v -14 -19 0
v -15 -20 0
v -16 -20 0
v -16 -19 0
v -15 -19 0
v -16 -20 0
v -17 -20 0
v -17 -19 0
v -16 -19 0
v -17 -20 0
v -18 -20 0
v -18 -19 0
v -17 -19 0
v -7 -21 0
v -8 -21 0
v -8 -20 0
v -7 -20 0
v -8 -21 0
v -9 -21 0
v -9 -20 0
v -8 -20 0
v -18 -21 0
v -19 -21 0
v -19 -20 0
v -18 -20 0
v -21 -21 0
v -22 -21 0
v -22 -20 0
v -21 -20 0
v -7 -22 0
v -8 -22 0
v -8 -21 0
v -7 -21 0
v -8 -22 0
v -9 -22 0
v -9 -21 0
v -8 -21 0
v -18 -22 0
v -19 -22 0
v -19 -21 0
v -18 -21 0
v -21 -22 0
v -22 -22 0
v -22 -21 0
v -21 -21 0
v -28 -22 0
v -29 -22 0
v -29 -21 0
v -28 -21 0
v -18 -23 0
v -19 -23 0
v -19 -22 0
v -18 -22 0
v -21 -23 0
v -22 -23 0
v -22 -22 0
v -21 -22 0
v -28 -23 0
v -29 -23 0
v -29 -22 0
v -28 -22 0

# Texture cooridinates (Count = 96)
vt 0.4991334 0
vt 0.4991334 0.04719764
vt 0.4714038 0.04719764
vt 0.4714038 0
vt 0.6481802 0.1976401
vt 0.6481802 0.1504425
vt 0.6759099 0.1504425
vt 0.6759099 0.1976401
vt 0.7053726 0.4985251
vt 0.677643 0.4985251
vt 0.677643 0.4513274
vt 0.7053726 0.4513274
vt 0.7071057 0.4483776
vt 0.7071057 0.40118
vt 0.7348353 0.40118
vt 0.7348353 0.4483776
vt 0.6187175 0.6519174
vt 0.6464471 0.6519174
vt 0.6464471 0.699115
vt 0.6187175 0.699115
vt 0.6481802 0.6519174
vt 0.6759099 0.6519174
vt 0.6759099 0.699115
vt 0.6481802 0.699115
vt 0.6187175 0.1976401
vt 0.6187175 0.1504425
vt 0.6464471 0.1504425
vt 0.6464471 0.1976401
vt 0.7365685 0.4483776
vt 0.7365685 0.40118
vt 0.7642981 0.40118
vt 0.7642981 0.4483776
vt 0.6187175 0.6017699
vt 0.6464471 0.6017699
vt 0.6464471 0.6489676
vt 0.6187175 0.6489676
vt 0.6481802 0.6017699
vt 0.6759099 0.6017699
vt 0.6759099 0.6489676
vt 0.6481802 0.6489676
vt 0.5892547 0.1976401
vt 0.5892547 0.1504425
vt 0.6169844 0.1504425
vt 0.6169844 0.1976401
vt 0.677643 0.40118
vt 0.7053726 0.40118
vt 0.7053726 0.4483776
vt 0.677643 0.4483776
vt 0.7660312 0.4513274
vt 0.7937608 0.4513274
vt 0.7937608 0.4985251
vt 0.7660312 0.4985251
vt 0.7071057 0.4513274
vt 0.7348353 0.4513274
vt 0.7348353 0.4985251
vt 0.7071057 0.4985251
vt 0.7660312 0.40118
vt 0.7937608 0.40118
vt 0.7937608 0.4483776
vt 0.7660312 0.4483776
vt 0.7365685 0.4513274
vt 0.7642981 0.4513274
vt 0.7642981 0.4985251
vt 0.7365685 0.4985251
vt 0.440208 0.05014747
vt 0.440208 0.09734511
vt 0.4124783 0.09734511
vt 0.4124783 0.05014747
vt 0.6169844 0.05014747
vt 0.6169844 0.09734511
vt 0.5892547 0.09734511
vt 0.5892547 0.05014747
vt 0.4696707 0.05014747
vt 0.4696707 0.09734511
vt 0.4419411 0.09734511
vt 0.4419411 0.05014747
vt 0.6464471 0.05014747
vt 0.6464471 0.09734511
vt 0.6187175 0.09734511
vt 0.6187175 0.05014747
vt 0.5303293 0.05014747
vt 0.5580589 0.05014747
vt 0.5580589 0.09734511
vt 0.5303293 0.09734511
vt 0.4991334 0.05014747
vt 0.4991334 0.09734511
vt 0.4714038 0.09734511
vt 0.4714038 0.05014747
vt 0.6759099 0.05014747
vt 0.6759099 0.09734511
vt 0.6481802 0.09734511
vt 0.6481802 0.05014747
vt 0.677643 0.1504425
vt 0.7053726 0.1504425
vt 0.7053726 0.1976401
vt 0.677643 0.1976401

# Normal
vn 0 0 -1

# Mesh description
g SubUrbMap_mesh_0005

# Faces
f 1/1/1 2/2/1 3/3/1 4/4/1
f 5/5/1 6/6/1 7/7/1 8/8/1
f 9/3/1 10/4/1 11/1/1 12/2/1
f 13/9/1 14/10/1 15/11/1 16/12/1
f 17/9/1 18/10/1 19/11/1 20/12/1
f 21/13/1 22/14/1 23/15/1 24/16/1
f 25/17/1 26/18/1 27/19/1 28/20/1
f 29/21/1 30/22/1 31/23/1 32/24/1
f 33/1/1 34/2/1 35/3/1 36/4/1
f 37/25/1 38/26/1 39/27/1 40/28/1
f 41/3/1 42/4/1 43/1/1 44/2/1
f 45/29/1 46/30/1 47/31/1 48/32/1
f 49/33/1 50/34/1 51/35/1 52/36/1
f 53/37/1 54/38/1 55/39/1 56/40/1
f 57/1/1 58/2/1 59/3/1 60/4/1
f 61/41/1 62/42/1 63/43/1 64/44/1
f 65/3/1 66/4/1 67/1/1 68/2/1
f 69/45/1 70/46/1 71/47/1 72/48/1
f 73/49/1 74/50/1 75/51/1 76/52/1
f 77/11/1 78/12/1 79/9/1 80/10/1
f 81/53/1 82/54/1 83/55/1 84/56/1
f 85/17/1 86/18/1 87/19/1 88/20/1
f 89/21/1 90/22/1 91/23/1 92/24/1
f 93/33/1 94/34/1 95/35/1 96/36/1
f 97/37/1 98/38/1 99/39/1 100/40/1
f 101/16/1 102/13/1 103/14/1 104/15/1
f 105/9/1 106/10/1 107/11/1 108/12/1
f 109/9/1 110/10/1 111/11/1 112/12/1
f 113/47/1 114/48/1 115/45/1 116/46/1
f 117/31/1 118/32/1 119/29/1 120/30/1
f 121/46/1 122/47/1 123/48/1 124/45/1
f 125/15/1 126/16/1 127/13/1 128/14/1
f 129/57/1 130/58/1 131/59/1 132/60/1
f 133/61/1 134/62/1 135/63/1 136/64/1
f 137/49/1 138/50/1 139/51/1 140/52/1
f 141/17/1 142/18/1 143/19/1 144/20/1
f 145/21/1 146/22/1 147/23/1 148/24/1
f 149/65/1 150/66/1 151/67/1 152/68/1
f 153/69/1 154/70/1 155/71/1 156/72/1
f 157/33/1 158/34/1 159/35/1 160/36/1
f 161/37/1 162/38/1 163/39/1 164/40/1
f 165/73/1 166/74/1 167/75/1 168/76/1
f 169/77/1 170/78/1 171/79/1 172/80/1
f 173/81/1 174/82/1 175/83/1 176/84/1
f 177/85/1 178/86/1 179/87/1 180/88/1
f 181/89/1 182/90/1 183/91/1 184/92/1
f 185/93/1 186/94/1 187/95/1 188/96/1

