# Tiled2Unity generated file. Do not modify by hand.
# Wavefront file for 'SubUrbMap_mesh_0003.obj'

# Vertices (Count = 496)
v 0 -1 0
v -1 -1 0
v -1 0 0
v 0 0 0
v -1 -1 0
v -2 -1 0
v -2 0 0
v -1 0 0
v -2 -1 0
v -3 -1 0
v -3 0 0
v -2 0 0
v -3 -1 0
v -4 -1 0
v -4 0 0
v -3 0 0
v -4 -1 0
v -5 -1 0
v -5 0 0
v -4 0 0
v -5 -1 0
v -6 -1 0
v -6 0 0
v -5 0 0
v -6 -1 0
v -7 -1 0
v -7 0 0
v -6 0 0
v -7 -1 0
v -8 -1 0
v -8 0 0
v -7 0 0
v -8 -1 0
v -9 -1 0
v -9 0 0
v -8 0 0
v -9 -1 0
v -10 -1 0
v -10 0 0
v -9 0 0
v -10 -1 0
v -11 -1 0
v -11 0 0
v -10 0 0
v -11 -1 0
v -12 -1 0
v -12 0 0
v -11 0 0
v -12 -1 0
v -13 -1 0
v -13 0 0
v -12 0 0
v -13 -1 0
v -14 -1 0
v -14 0 0
v -13 0 0
v -14 -1 0
v -15 -1 0
v -15 0 0
v -14 0 0
v -15 -1 0
v -16 -1 0
v -16 0 0
v -15 0 0
v -16 -1 0
v -17 -1 0
v -17 0 0
v -16 0 0
v -17 -1 0
v -18 -1 0
v -18 0 0
v -17 0 0
v -18 -1 0
v -19 -1 0
v -19 0 0
v -18 0 0
v -19 -1 0
v -20 -1 0
v -20 0 0
v -19 0 0
v -20 -1 0
v -21 -1 0
v -21 0 0
v -20 0 0
v -21 -1 0
v -22 -1 0
v -22 0 0
v -21 0 0
v -22 -1 0
v -23 -1 0
v -23 0 0
v -22 0 0
v -23 -1 0
v -24 -1 0
v -24 0 0
v -23 0 0
v -24 -1 0
v -25 -1 0
v -25 0 0
v -24 0 0
v -25 -1 0
v -26 -1 0
v -26 0 0
v -25 0 0
v -26 -1 0
v -27 -1 0
v -27 0 0
v -26 0 0
v -27 -1 0
v -28 -1 0
v -28 0 0
v -27 0 0
v -28 -1 0
v -29 -1 0
v -29 0 0
v -28 0 0
v -29 -1 0
v -30 -1 0
v -30 0 0
v -29 0 0
v -30 -1 0
v -31 -1 0
v -31 0 0
v -30 0 0
v -31 -1 0
v -32 -1 0
v -32 0 0
v -31 0 0
v -32 -1 0
v -33 -1 0
v -33 0 0
v -32 0 0
v -33 -1 0
v -34 -1 0
v -34 0 0
v -33 0 0
v -34 -1 0
v -35 -1 0
v -35 0 0
v -34 0 0
v -35 -1 0
v -36 -1 0
v -36 0 0
v -35 0 0
v -36 -1 0
v -37 -1 0
v -37 0 0
v -36 0 0
v -37 -1 0
v -38 -1 0
v -38 0 0
v -37 0 0
v 0 -2 0
v -1 -2 0
v -1 -1 0
v 0 -1 0
v -37 -2 0
v -38 -2 0
v -38 -1 0
v -37 -1 0
v 0 -3 0
v -1 -3 0
v -1 -2 0
v 0 -2 0
v -37 -3 0
v -38 -3 0
v -38 -2 0
v -37 -2 0
v 0 -4 0
v -1 -4 0
v -1 -3 0
v 0 -3 0
v -37 -4 0
v -38 -4 0
v -38 -3 0
v -37 -3 0
v 0 -5 0
v -1 -5 0
v -1 -4 0
v 0 -4 0
v -37 -5 0
v -38 -5 0
v -38 -4 0
v -37 -4 0
v 0 -6 0
v -1 -6 0
v -1 -5 0
v 0 -5 0
v -37 -6 0
v -38 -6 0
v -38 -5 0
v -37 -5 0
v 0 -7 0
v -1 -7 0
v -1 -6 0
v 0 -6 0
v -37 -7 0
v -38 -7 0
v -38 -6 0
v -37 -6 0
v 0 -8 0
v -1 -8 0
v -1 -7 0
v 0 -7 0
v -37 -8 0
v -38 -8 0
v -38 -7 0
v -37 -7 0
v 0 -9 0
v -1 -9 0
v -1 -8 0
v 0 -8 0
v -37 -9 0
v -38 -9 0
v -38 -8 0
v -37 -8 0
v 0 -10 0
v -1 -10 0
v -1 -9 0
v 0 -9 0
v -37 -10 0
v -38 -10 0
v -38 -9 0
v -37 -9 0
v 0 -11 0
v -1 -11 0
v -1 -10 0
v 0 -10 0
v -37 -11 0
v -38 -11 0
v -38 -10 0
v -37 -10 0
v 0 -12 0
v -1 -12 0
v -1 -11 0
v 0 -11 0
v -37 -12 0
v -38 -12 0
v -38 -11 0
v -37 -11 0
v 0 -13 0
v -1 -13 0
v -1 -12 0
v 0 -12 0
v -37 -13 0
v -38 -13 0
v -38 -12 0
v -37 -12 0
v 0 -14 0
v -1 -14 0
v -1 -13 0
v 0 -13 0
v -37 -14 0
v -38 -14 0
v -38 -13 0
v -37 -13 0
v 0 -15 0
v -1 -15 0
v -1 -14 0
v 0 -14 0
v -37 -15 0
v -38 -15 0
v -38 -14 0
v -37 -14 0
v 0 -16 0
v -1 -16 0
v -1 -15 0
v 0 -15 0
v -37 -16 0
v -38 -16 0
v -38 -15 0
v -37 -15 0
v 0 -17 0
v -1 -17 0
v -1 -16 0
v 0 -16 0
v -37 -17 0
v -38 -17 0
v -38 -16 0
v -37 -16 0
v 0 -18 0
v -1 -18 0
v -1 -17 0
v 0 -17 0
v -37 -18 0
v -38 -18 0
v -38 -17 0
v -37 -17 0
v 0 -19 0
v -1 -19 0
v -1 -18 0
v 0 -18 0
v -37 -19 0
v -38 -19 0
v -38 -18 0
v -37 -18 0
v 0 -20 0
v -1 -20 0
v -1 -19 0
v 0 -19 0
v -37 -20 0
v -38 -20 0
v -38 -19 0
v -37 -19 0
v 0 -21 0
v -1 -21 0
v -1 -20 0
v 0 -20 0
v -37 -21 0
v -38 -21 0
v -38 -20 0
v -37 -20 0
v 0 -22 0
v -1 -22 0
v -1 -21 0
v 0 -21 0
v -37 -22 0
v -38 -22 0
v -38 -21 0
v -37 -21 0
v 0 -23 0
v -1 -23 0
v -1 -22 0
v 0 -22 0
v -37 -23 0
v -38 -23 0
v -38 -22 0
v -37 -22 0
v 0 -24 0
v -1 -24 0
v -1 -23 0
v 0 -23 0
v -37 -24 0
v -38 -24 0
v -38 -23 0
v -37 -23 0
v 0 -25 0
v -1 -25 0
v -1 -24 0
v 0 -24 0
v -37 -25 0
v -38 -25 0
v -38 -24 0
v -37 -24 0
v 0 -26 0
v -1 -26 0
v -1 -25 0
v 0 -25 0
v -1 -26 0
v -2 -26 0
v -2 -25 0
v -1 -25 0
v -2 -26 0
v -3 -26 0
v -3 -25 0
v -2 -25 0
v -3 -26 0
v -4 -26 0
v -4 -25 0
v -3 -25 0
v -4 -26 0
v -5 -26 0
v -5 -25 0
v -4 -25 0
v -5 -26 0
v -6 -26 0
v -6 -25 0
v -5 -25 0
v -6 -26 0
v -7 -26 0
v -7 -25 0
v -6 -25 0
v -7 -26 0
v -8 -26 0
v -8 -25 0
v -7 -25 0
v -8 -26 0
v -9 -26 0
v -9 -25 0
v -8 -25 0
v -9 -26 0
v -10 -26 0
v -10 -25 0
v -9 -25 0
v -10 -26 0
v -11 -26 0
v -11 -25 0
v -10 -25 0
v -11 -26 0
v -12 -26 0
v -12 -25 0
v -11 -25 0
v -12 -26 0
v -13 -26 0
v -13 -25 0
v -12 -25 0
v -13 -26 0
v -14 -26 0
v -14 -25 0
v -13 -25 0
v -14 -26 0
v -15 -26 0
v -15 -25 0
v -14 -25 0
v -15 -26 0
v -16 -26 0
v -16 -25 0
v -15 -25 0
v -16 -26 0
v -17 -26 0
v -17 -25 0
v -16 -25 0
v -17 -26 0
v -18 -26 0
v -18 -25 0
v -17 -25 0
v -18 -26 0
v -19 -26 0
v -19 -25 0
v -18 -25 0
v -19 -26 0
v -20 -26 0
v -20 -25 0
v -19 -25 0
v -20 -26 0
v -21 -26 0
v -21 -25 0
v -20 -25 0
v -21 -26 0
v -22 -26 0
v -22 -25 0
v -21 -25 0
v -22 -26 0
v -23 -26 0
v -23 -25 0
v -22 -25 0
v -23 -26 0
v -24 -26 0
v -24 -25 0
v -23 -25 0
v -24 -26 0
v -25 -26 0
v -25 -25 0
v -24 -25 0
v -25 -26 0
v -26 -26 0
v -26 -25 0
v -25 -25 0
v -26 -26 0
v -27 -26 0
v -27 -25 0
v -26 -25 0
v -27 -26 0
v -28 -26 0
v -28 -25 0
v -27 -25 0
v -28 -26 0
v -29 -26 0
v -29 -25 0
v -28 -25 0
v -29 -26 0
v -30 -26 0
v -30 -25 0
v -29 -25 0
v -30 -26 0
v -31 -26 0
v -31 -25 0
v -30 -25 0
v -31 -26 0
v -32 -26 0
v -32 -25 0
v -31 -25 0
v -32 -26 0
v -33 -26 0
v -33 -25 0
v -32 -25 0
v -33 -26 0
v -34 -26 0
v -34 -25 0
v -33 -25 0
v -34 -26 0
v -35 -26 0
v -35 -25 0
v -34 -25 0
v -35 -26 0
v -36 -26 0
v -36 -25 0
v -35 -25 0
v -36 -26 0
v -37 -26 0
v -37 -25 0
v -36 -25 0
v -37 -26 0
v -38 -26 0
v -38 -25 0
v -37 -25 0

# Texture cooridinates (Count = 8)
vt 0.4124783 0.8525074
vt 0.440208 0.8525074
vt 0.440208 0.899705
vt 0.4124783 0.899705
vt 0.4419411 0.8525074
vt 0.4696707 0.8525074
vt 0.4696707 0.899705
vt 0.4419411 0.899705

# Normal
vn 0 0 -1

# Mesh description
g SubUrbMap_mesh_0003

# Faces
f 1/1/1 2/2/1 3/3/1 4/4/1
f 5/1/1 6/2/1 7/3/1 8/4/1
f 9/1/1 10/2/1 11/3/1 12/4/1
f 13/1/1 14/2/1 15/3/1 16/4/1
f 17/1/1 18/2/1 19/3/1 20/4/1
f 21/1/1 22/2/1 23/3/1 24/4/1
f 25/1/1 26/2/1 27/3/1 28/4/1
f 29/1/1 30/2/1 31/3/1 32/4/1
f 33/1/1 34/2/1 35/3/1 36/4/1
f 37/1/1 38/2/1 39/3/1 40/4/1
f 41/1/1 42/2/1 43/3/1 44/4/1
f 45/1/1 46/2/1 47/3/1 48/4/1
f 49/1/1 50/2/1 51/3/1 52/4/1
f 53/1/1 54/2/1 55/3/1 56/4/1
f 57/1/1 58/2/1 59/3/1 60/4/1
f 61/1/1 62/2/1 63/3/1 64/4/1
f 65/1/1 66/2/1 67/3/1 68/4/1
f 69/1/1 70/2/1 71/3/1 72/4/1
f 73/1/1 74/2/1 75/3/1 76/4/1
f 77/1/1 78/2/1 79/3/1 80/4/1
f 81/1/1 82/2/1 83/3/1 84/4/1
f 85/1/1 86/2/1 87/3/1 88/4/1
f 89/1/1 90/2/1 91/3/1 92/4/1
f 93/1/1 94/2/1 95/3/1 96/4/1
f 97/1/1 98/2/1 99/3/1 100/4/1
f 101/1/1 102/2/1 103/3/1 104/4/1
f 105/1/1 106/2/1 107/3/1 108/4/1
f 109/1/1 110/2/1 111/3/1 112/4/1
f 113/1/1 114/2/1 115/3/1 116/4/1
f 117/1/1 118/2/1 119/3/1 120/4/1
f 121/1/1 122/2/1 123/3/1 124/4/1
f 125/1/1 126/2/1 127/3/1 128/4/1
f 129/1/1 130/2/1 131/3/1 132/4/1
f 133/1/1 134/2/1 135/3/1 136/4/1
f 137/1/1 138/2/1 139/3/1 140/4/1
f 141/1/1 142/2/1 143/3/1 144/4/1
f 145/1/1 146/2/1 147/3/1 148/4/1
f 149/5/1 150/6/1 151/7/1 152/8/1
f 153/5/1 154/6/1 155/7/1 156/8/1
f 157/5/1 158/6/1 159/7/1 160/8/1
f 161/5/1 162/6/1 163/7/1 164/8/1
f 165/5/1 166/6/1 167/7/1 168/8/1
f 169/5/1 170/6/1 171/7/1 172/8/1
f 173/5/1 174/6/1 175/7/1 176/8/1
f 177/5/1 178/6/1 179/7/1 180/8/1
f 181/5/1 182/6/1 183/7/1 184/8/1
f 185/5/1 186/6/1 187/7/1 188/8/1
f 189/5/1 190/6/1 191/7/1 192/8/1
f 193/5/1 194/6/1 195/7/1 196/8/1
f 197/5/1 198/6/1 199/7/1 200/8/1
f 201/5/1 202/6/1 203/7/1 204/8/1
f 205/5/1 206/6/1 207/7/1 208/8/1
f 209/5/1 210/6/1 211/7/1 212/8/1
f 213/5/1 214/6/1 215/7/1 216/8/1
f 217/5/1 218/6/1 219/7/1 220/8/1
f 221/5/1 222/6/1 223/7/1 224/8/1
f 225/5/1 226/6/1 227/7/1 228/8/1
f 229/5/1 230/6/1 231/7/1 232/8/1
f 233/5/1 234/6/1 235/7/1 236/8/1
f 237/5/1 238/6/1 239/7/1 240/8/1
f 241/5/1 242/6/1 243/7/1 244/8/1
f 245/5/1 246/6/1 247/7/1 248/8/1
f 249/5/1 250/6/1 251/7/1 252/8/1
f 253/5/1 254/6/1 255/7/1 256/8/1
f 257/5/1 258/6/1 259/7/1 260/8/1
f 261/5/1 262/6/1 263/7/1 264/8/1
f 265/5/1 266/6/1 267/7/1 268/8/1
f 269/5/1 270/6/1 271/7/1 272/8/1
f 273/5/1 274/6/1 275/7/1 276/8/1
f 277/5/1 278/6/1 279/7/1 280/8/1
f 281/5/1 282/6/1 283/7/1 284/8/1
f 285/5/1 286/6/1 287/7/1 288/8/1
f 289/5/1 290/6/1 291/7/1 292/8/1
f 293/5/1 294/6/1 295/7/1 296/8/1
f 297/5/1 298/6/1 299/7/1 300/8/1
f 301/5/1 302/6/1 303/7/1 304/8/1
f 305/5/1 306/6/1 307/7/1 308/8/1
f 309/5/1 310/6/1 311/7/1 312/8/1
f 313/5/1 314/6/1 315/7/1 316/8/1
f 317/5/1 318/6/1 319/7/1 320/8/1
f 321/5/1 322/6/1 323/7/1 324/8/1
f 325/5/1 326/6/1 327/7/1 328/8/1
f 329/5/1 330/6/1 331/7/1 332/8/1
f 333/5/1 334/6/1 335/7/1 336/8/1
f 337/5/1 338/6/1 339/7/1 340/8/1
f 341/5/1 342/6/1 343/7/1 344/8/1
f 345/1/1 346/2/1 347/3/1 348/4/1
f 349/1/1 350/2/1 351/3/1 352/4/1
f 353/1/1 354/2/1 355/3/1 356/4/1
f 357/1/1 358/2/1 359/3/1 360/4/1
f 361/1/1 362/2/1 363/3/1 364/4/1
f 365/1/1 366/2/1 367/3/1 368/4/1
f 369/1/1 370/2/1 371/3/1 372/4/1
f 373/1/1 374/2/1 375/3/1 376/4/1
f 377/1/1 378/2/1 379/3/1 380/4/1
f 381/1/1 382/2/1 383/3/1 384/4/1
f 385/1/1 386/2/1 387/3/1 388/4/1
f 389/1/1 390/2/1 391/3/1 392/4/1
f 393/1/1 394/2/1 395/3/1 396/4/1
f 397/1/1 398/2/1 399/3/1 400/4/1
f 401/1/1 402/2/1 403/3/1 404/4/1
f 405/1/1 406/2/1 407/3/1 408/4/1
f 409/1/1 410/2/1 411/3/1 412/4/1
f 413/1/1 414/2/1 415/3/1 416/4/1
f 417/1/1 418/2/1 419/3/1 420/4/1
f 421/1/1 422/2/1 423/3/1 424/4/1
f 425/1/1 426/2/1 427/3/1 428/4/1
f 429/1/1 430/2/1 431/3/1 432/4/1
f 433/1/1 434/2/1 435/3/1 436/4/1
f 437/1/1 438/2/1 439/3/1 440/4/1
f 441/1/1 442/2/1 443/3/1 444/4/1
f 445/1/1 446/2/1 447/3/1 448/4/1
f 449/1/1 450/2/1 451/3/1 452/4/1
f 453/1/1 454/2/1 455/3/1 456/4/1
f 457/1/1 458/2/1 459/3/1 460/4/1
f 461/1/1 462/2/1 463/3/1 464/4/1
f 465/1/1 466/2/1 467/3/1 468/4/1
f 469/1/1 470/2/1 471/3/1 472/4/1
f 473/1/1 474/2/1 475/3/1 476/4/1
f 477/1/1 478/2/1 479/3/1 480/4/1
f 481/1/1 482/2/1 483/3/1 484/4/1
f 485/1/1 486/2/1 487/3/1 488/4/1
f 489/1/1 490/2/1 491/3/1 492/4/1
f 493/1/1 494/2/1 495/3/1 496/4/1

