# Tiled2Unity generated file. Do not modify by hand.
# Wavefront file for 'DefendFarm_mesh_0004.obj'

# Vertices (Count = 20)
v -19 -7 0
v -20 -7 0
v -20 -6 0
v -19 -6 0
v -16 -13 0
v -17 -13 0
v -17 -12 0
v -16 -12 0
v -18 -16 0
v -19 -16 0
v -19 -15 0
v -18 -15 0
v -19 -16 0
v -20 -16 0
v -20 -15 0
v -19 -15 0
v -20 -16 0
v -21 -16 0
v -21 -15 0
v -20 -15 0

# Texture cooridinates (Count = 12)
vt 0.7365685 0.7522124
vt 0.7642981 0.7522124
vt 0.7642981 0.79941
vt 0.7365685 0.79941
vt 0.677643 0.6017699
vt 0.7053726 0.6017699
vt 0.7053726 0.6489676
vt 0.677643 0.6489676
vt 0.677643 0.5516224
vt 0.7053726 0.5516224
vt 0.7053726 0.5988201
vt 0.677643 0.5988201

# Normal
vn 0 0 -1

# Mesh description
g DefendFarm_mesh_0004

# Faces
f 1/1/1 2/2/1 3/3/1 4/4/1
f 5/5/1 6/6/1 7/7/1 8/8/1
f 9/9/1 10/10/1 11/11/1 12/12/1
f 13/9/1 14/10/1 15/11/1 16/12/1
f 17/9/1 18/10/1 19/11/1 20/12/1

