# Tiled2Unity generated file. Do not modify by hand.
# Wavefront file for 'SuburbsMap2_mesh_0006.obj'

# Vertices (Count = 220)
v -28 -1 0
v -29 -1 0
v -29 0 0
v -28 0 0
v -29 -1 0
v -30 -1 0
v -30 0 0
v -29 0 0
v -30 -1 0
v -31 -1 0
v -31 0 0
v -30 0 0
v -31 -1 0
v -32 -1 0
v -32 0 0
v -31 0 0
v -32 -1 0
v -33 -1 0
v -33 0 0
v -32 0 0
v -33 -1 0
v -34 -1 0
v -34 0 0
v -33 0 0
v -34 -1 0
v -35 -1 0
v -35 0 0
v -34 0 0
v -35 -1 0
v -36 -1 0
v -36 0 0
v -35 0 0
v -36 -1 0
v -37 -1 0
v -37 0 0
v -36 0 0
v -37 -1 0
v -38 -1 0
v -38 0 0
v -37 0 0
v -38 -1 0
v -39 -1 0
v -39 0 0
v -38 0 0
v -39 -1 0
v -40 -1 0
v -40 0 0
v -39 0 0
v -40 -1 0
v -41 -1 0
v -41 0 0
v -40 0 0
v -41 -1 0
v -42 -1 0
v -42 0 0
v -41 0 0
v -42 -1 0
v -43 -1 0
v -43 0 0
v -42 0 0
v -28 -2 0
v -29 -2 0
v -29 -1 0
v -28 -1 0
v -42 -2 0
v -43 -2 0
v -43 -1 0
v -42 -1 0
v -42 -3 0
v -43 -3 0
v -43 -2 0
v -42 -2 0
v -42 -4 0
v -43 -4 0
v -43 -3 0
v -42 -3 0
v -55 -11 0
v -56 -11 0
v -56 -10 0
v -55 -10 0
v -56 -11 0
v -57 -11 0
v -57 -10 0
v -56 -10 0
v -57 -11 0
v -58 -11 0
v -58 -10 0
v -57 -10 0
v -58 -11 0
v -59 -11 0
v -59 -10 0
v -58 -10 0
v -58 -12 0
v -59 -12 0
v -59 -11 0
v -58 -11 0
v -58 -13 0
v -59 -13 0
v -59 -12 0
v -58 -12 0
v -58 -14 0
v -59 -14 0
v -59 -13 0
v -58 -13 0
v -58 -15 0
v -59 -15 0
v -59 -14 0
v -58 -14 0
v -58 -16 0
v -59 -16 0
v -59 -15 0
v -58 -15 0
v -58 -17 0
v -59 -17 0
v -59 -16 0
v -58 -16 0
v -58 -18 0
v -59 -18 0
v -59 -17 0
v -58 -17 0
v -58 -19 0
v -59 -19 0
v -59 -18 0
v -58 -18 0
v -58 -20 0
v -59 -20 0
v -59 -19 0
v -58 -19 0
v -53 -21 0
v -54 -21 0
v -54 -20 0
v -53 -20 0
v -54 -21 0
v -55 -21 0
v -55 -20 0
v -54 -20 0
v -55 -21 0
v -56 -21 0
v -56 -20 0
v -55 -20 0
v -56 -21 0
v -57 -21 0
v -57 -20 0
v -56 -20 0
v -57 -21 0
v -58 -21 0
v -58 -20 0
v -57 -20 0
v -58 -21 0
v -59 -21 0
v -59 -20 0
v -58 -20 0
v -43 -23 0
v -44 -23 0
v -44 -22 0
v -43 -22 0
v -44 -23 0
v -45 -23 0
v -45 -22 0
v -44 -22 0
v -45 -23 0
v -46 -23 0
v -46 -22 0
v -45 -22 0
v -46 -23 0
v -47 -23 0
v -47 -22 0
v -46 -22 0
v -46 -24 0
v -47 -24 0
v -47 -23 0
v -46 -23 0
v -46 -25 0
v -47 -25 0
v -47 -24 0
v -46 -24 0
v -46 -26 0
v -47 -26 0
v -47 -25 0
v -46 -25 0
v -46 -27 0
v -47 -27 0
v -47 -26 0
v -46 -26 0
v -46 -28 0
v -47 -28 0
v -47 -27 0
v -46 -27 0
v -46 -29 0
v -47 -29 0
v -47 -28 0
v -46 -28 0
v -40 -30 0
v -41 -30 0
v -41 -29 0
v -40 -29 0
v -41 -30 0
v -42 -30 0
v -42 -29 0
v -41 -29 0
v -42 -30 0
v -43 -30 0
v -43 -29 0
v -42 -29 0
v -43 -30 0
v -44 -30 0
v -44 -29 0
v -43 -29 0
v -44 -30 0
v -45 -30 0
v -45 -29 0
v -44 -29 0
v -45 -30 0
v -46 -30 0
v -46 -29 0
v -45 -29 0
v -46 -30 0
v -47 -30 0
v -47 -29 0
v -46 -29 0

# Texture cooridinates (Count = 17)
vt 0 0.7
vt 0.1 0.7
vt 0.1 0.8
vt 0 0.8
vt 0.2 0.7
vt 0.2 0.8
vt 0.3 0.7
vt 0.3 0.8
vt 0.4 0.9
vt 0.3 0.9
vt 0.4 0.8
vt 0.2 0.6
vt 0.3 0.6
vt 0.1 0.5
vt 0.2 0.5
vt 0.1 0.6
vt 0.3 0.5

# Normal
vn 0 0 -1

# Mesh description
g SuburbsMap2_mesh_0006

# Faces
f 1/1/1 2/2/1 3/3/1 4/4/1
f 5/2/1 6/5/1 7/6/1 8/3/1
f 9/2/1 10/5/1 11/6/1 12/3/1
f 13/2/1 14/5/1 15/6/1 16/3/1
f 17/2/1 18/5/1 19/6/1 20/3/1
f 21/2/1 22/5/1 23/6/1 24/3/1
f 25/2/1 26/5/1 27/6/1 28/3/1
f 29/2/1 30/5/1 31/6/1 32/3/1
f 33/2/1 34/5/1 35/6/1 36/3/1
f 37/2/1 38/5/1 39/6/1 40/3/1
f 41/2/1 42/5/1 43/6/1 44/3/1
f 45/2/1 46/5/1 47/6/1 48/3/1
f 49/2/1 50/5/1 51/6/1 52/3/1
f 53/2/1 54/5/1 55/6/1 56/3/1
f 57/5/1 58/7/1 59/8/1 60/6/1
f 61/9/1 62/10/1 63/8/1 64/11/1
f 65/12/1 66/13/1 67/7/1 68/5/1
f 69/12/1 70/13/1 71/7/1 72/5/1
f 73/12/1 74/13/1 75/7/1 76/5/1
f 77/2/1 78/5/1 79/6/1 80/3/1
f 81/2/1 82/5/1 83/6/1 84/3/1
f 85/10/1 86/8/1 87/11/1 88/9/1
f 89/5/1 90/7/1 91/8/1 92/6/1
f 93/12/1 94/13/1 95/7/1 96/5/1
f 97/12/1 98/13/1 99/7/1 100/5/1
f 101/12/1 102/13/1 103/7/1 104/5/1
f 105/12/1 106/13/1 107/7/1 108/5/1
f 109/12/1 110/13/1 111/7/1 112/5/1
f 113/12/1 114/13/1 115/7/1 116/5/1
f 117/12/1 118/13/1 119/7/1 120/5/1
f 121/12/1 122/13/1 123/7/1 124/5/1
f 125/12/1 126/13/1 127/7/1 128/5/1
f 129/14/1 130/15/1 131/12/1 132/16/1
f 133/14/1 134/15/1 135/12/1 136/16/1
f 137/14/1 138/15/1 139/12/1 140/16/1
f 141/11/1 142/9/1 143/10/1 144/8/1
f 145/14/1 146/15/1 147/12/1 148/16/1
f 149/15/1 150/17/1 151/13/1 152/12/1
f 153/2/1 154/5/1 155/6/1 156/3/1
f 157/2/1 158/5/1 159/6/1 160/3/1
f 161/10/1 162/8/1 163/11/1 164/9/1
f 165/5/1 166/7/1 167/8/1 168/6/1
f 169/12/1 170/13/1 171/7/1 172/5/1
f 173/12/1 174/13/1 175/7/1 176/5/1
f 177/12/1 178/13/1 179/7/1 180/5/1
f 181/12/1 182/13/1 183/7/1 184/5/1
f 185/12/1 186/13/1 187/7/1 188/5/1
f 189/12/1 190/13/1 191/7/1 192/5/1
f 193/14/1 194/15/1 195/12/1 196/16/1
f 197/14/1 198/15/1 199/12/1 200/16/1
f 201/14/1 202/15/1 203/12/1 204/16/1
f 205/14/1 206/15/1 207/12/1 208/16/1
f 209/14/1 210/15/1 211/12/1 212/16/1
f 213/14/1 214/15/1 215/12/1 216/16/1
f 217/15/1 218/17/1 219/13/1 220/12/1

