# Tiled2Unity generated file. Do not modify by hand.
# Wavefront file for 'SuburbsMap2_mesh_0007.obj'

# Vertices (Count = 876)
v -21 -2 0
v -22 -2 0
v -22 -1 0
v -21 -1 0
v -22 -2 0
v -23 -2 0
v -23 -1 0
v -22 -1 0
v -21 -3 0
v -22 -3 0
v -22 -2 0
v -21 -2 0
v -22 -3 0
v -23 -3 0
v -23 -2 0
v -22 -2 0
v -29 -4 0
v -30 -4 0
v -30 -3 0
v -29 -3 0
v -31 -4 0
v -32 -4 0
v -32 -3 0
v -31 -3 0
v -32 -4 0
v -33 -4 0
v -33 -3 0
v -32 -3 0
v -33 -4 0
v -34 -4 0
v -34 -3 0
v -33 -3 0
v -35 -4 0
v -36 -4 0
v -36 -3 0
v -35 -3 0
v -36 -4 0
v -37 -4 0
v -37 -3 0
v -36 -3 0
v -37 -4 0
v -38 -4 0
v -38 -3 0
v -37 -3 0
v -39 -4 0
v -40 -4 0
v -40 -3 0
v -39 -3 0
v -40 -4 0
v -41 -4 0
v -41 -3 0
v -40 -3 0
v -41 -4 0
v -42 -4 0
v -42 -3 0
v -41 -3 0
v -29 -5 0
v -30 -5 0
v -30 -4 0
v -29 -4 0
v -23 -6 0
v -24 -6 0
v -24 -5 0
v -23 -5 0
v -24 -6 0
v -25 -6 0
v -25 -5 0
v -24 -5 0
v -29 -6 0
v -30 -6 0
v -30 -5 0
v -29 -5 0
v -23 -7 0
v -24 -7 0
v -24 -6 0
v -23 -6 0
v -24 -7 0
v -25 -7 0
v -25 -6 0
v -24 -6 0
v -29 -7 0
v -30 -7 0
v -30 -6 0
v -29 -6 0
v -30 -7 0
v -31 -7 0
v -31 -6 0
v -30 -6 0
v -36 -7 0
v -37 -7 0
v -37 -6 0
v -36 -6 0
v -37 -7 0
v -38 -7 0
v -38 -6 0
v -37 -6 0
v -8 -8 0
v -9 -8 0
v -9 -7 0
v -8 -7 0
v -9 -8 0
v -10 -8 0
v -10 -7 0
v -9 -7 0
v -12 -8 0
v -13 -8 0
v -13 -7 0
v -12 -7 0
v -8 -9 0
v -9 -9 0
v -9 -8 0
v -8 -8 0
v -9 -9 0
v -10 -9 0
v -10 -8 0
v -9 -8 0
v -12 -9 0
v -13 -9 0
v -13 -8 0
v -12 -8 0
v -47 -9 0
v -48 -9 0
v -48 -8 0
v -47 -8 0
v -51 -9 0
v -52 -9 0
v -52 -8 0
v -51 -8 0
v -21 -10 0
v -22 -10 0
v -22 -9 0
v -21 -9 0
v -22 -10 0
v -23 -10 0
v -23 -9 0
v -22 -9 0
v -47 -10 0
v -48 -10 0
v -48 -9 0
v -47 -9 0
v -51 -10 0
v -52 -10 0
v -52 -9 0
v -51 -9 0
v -53 -10 0
v -54 -10 0
v -54 -9 0
v -53 -9 0
v -54 -10 0
v -55 -10 0
v -55 -9 0
v -54 -9 0
v -21 -11 0
v -22 -11 0
v -22 -10 0
v -21 -10 0
v -22 -11 0
v -23 -11 0
v -23 -10 0
v -22 -10 0
v -29 -11 0
v -30 -11 0
v -30 -10 0
v -29 -10 0
v -30 -11 0
v -31 -11 0
v -31 -10 0
v -30 -10 0
v -47 -11 0
v -48 -11 0
v -48 -10 0
v -47 -10 0
v -51 -11 0
v -52 -11 0
v -52 -10 0
v -51 -10 0
v -10 -12 0
v -11 -12 0
v -11 -11 0
v -10 -11 0
v -11 -12 0
v -12 -12 0
v -12 -11 0
v -11 -11 0
v -12 -12 0
v -13 -12 0
v -13 -11 0
v -12 -11 0
v -25 -12 0
v -26 -12 0
v -26 -11 0
v -25 -11 0
v -26 -12 0
v -27 -12 0
v -27 -11 0
v -26 -11 0
v -29 -12 0
v -30 -12 0
v -30 -11 0
v -29 -11 0
v -30 -12 0
v -31 -12 0
v -31 -11 0
v -30 -11 0
v -49 -12 0
v -50 -12 0
v -50 -11 0
v -49 -11 0
v -52 -12 0
v -53 -12 0
v -53 -11 0
v -52 -11 0
v -53 -12 0
v -54 -12 0
v -54 -11 0
v -53 -11 0
v -10 -13 0
v -11 -13 0
v -11 -12 0
v -10 -12 0
v -11 -13 0
v -12 -13 0
v -12 -12 0
v -11 -12 0
v -12 -13 0
v -13 -13 0
v -13 -12 0
v -12 -12 0
v -25 -13 0
v -26 -13 0
v -26 -12 0
v -25 -12 0
v -26 -13 0
v -27 -13 0
v -27 -12 0
v -26 -12 0
v -53 -13 0
v -54 -13 0
v -54 -12 0
v -53 -12 0
v -53 -14 0
v -54 -14 0
v -54 -13 0
v -53 -13 0
v -11 -15 0
v -12 -15 0
v -12 -14 0
v -11 -14 0
v -48 -15 0
v -49 -15 0
v -49 -14 0
v -48 -14 0
v -49 -15 0
v -50 -15 0
v -50 -14 0
v -49 -14 0
v -50 -15 0
v -51 -15 0
v -51 -14 0
v -50 -14 0
v -11 -16 0
v -12 -16 0
v -12 -15 0
v -11 -15 0
v -48 -16 0
v -49 -16 0
v -49 -15 0
v -48 -15 0
v -49 -16 0
v -50 -16 0
v -50 -15 0
v -49 -15 0
v -50 -16 0
v -51 -16 0
v -51 -15 0
v -50 -15 0
v -52 -16 0
v -53 -16 0
v -53 -15 0
v -52 -15 0
v -53 -16 0
v -54 -16 0
v -54 -15 0
v -53 -15 0
v -8 -17 0
v -9 -17 0
v -9 -16 0
v -8 -16 0
v -9 -17 0
v -10 -17 0
v -10 -16 0
v -9 -16 0
v -10 -17 0
v -11 -17 0
v -11 -16 0
v -10 -16 0
v -11 -17 0
v -12 -17 0
v -12 -16 0
v -11 -16 0
v -23 -18 0
v -24 -18 0
v -24 -17 0
v -23 -17 0
v -24 -18 0
v -25 -18 0
v -25 -17 0
v -24 -17 0
v -23 -19 0
v -24 -19 0
v -24 -18 0
v -23 -18 0
v -24 -19 0
v -25 -19 0
v -25 -18 0
v -24 -18 0
v -20 -20 0
v -21 -20 0
v -21 -19 0
v -20 -19 0
v -21 -20 0
v -22 -20 0
v -22 -19 0
v -21 -19 0
v -27 -20 0
v -28 -20 0
v -28 -19 0
v -27 -19 0
v -28 -20 0
v -29 -20 0
v -29 -19 0
v -28 -19 0
v -20 -21 0
v -21 -21 0
v -21 -20 0
v -20 -20 0
v -21 -21 0
v -22 -21 0
v -22 -20 0
v -21 -20 0
v -27 -21 0
v -28 -21 0
v -28 -20 0
v -27 -20 0
v -28 -21 0
v -29 -21 0
v -29 -20 0
v -28 -20 0
v -8 -24 0
v -9 -24 0
v -9 -23 0
v -8 -23 0
v -12 -24 0
v -13 -24 0
v -13 -23 0
v -12 -23 0
v -28 -24 0
v -29 -24 0
v -29 -23 0
v -28 -23 0
v -29 -24 0
v -30 -24 0
v -30 -23 0
v -29 -23 0
v -30 -24 0
v -31 -24 0
v -31 -23 0
v -30 -23 0
v -37 -24 0
v -38 -24 0
v -38 -23 0
v -37 -23 0
v -38 -24 0
v -39 -24 0
v -39 -23 0
v -38 -23 0
v -8 -25 0
v -9 -25 0
v -9 -24 0
v -8 -24 0
v -12 -25 0
v -13 -25 0
v -13 -24 0
v -12 -24 0
v -22 -25 0
v -23 -25 0
v -23 -24 0
v -22 -24 0
v -23 -25 0
v -24 -25 0
v -24 -24 0
v -23 -24 0
v -28 -25 0
v -29 -25 0
v -29 -24 0
v -28 -24 0
v -29 -25 0
v -30 -25 0
v -30 -24 0
v -29 -24 0
v -30 -25 0
v -31 -25 0
v -31 -24 0
v -30 -24 0
v -8 -26 0
v -9 -26 0
v -9 -25 0
v -8 -25 0
v -12 -26 0
v -13 -26 0
v -13 -25 0
v -12 -25 0
v -22 -26 0
v -23 -26 0
v -23 -25 0
v -22 -25 0
v -23 -26 0
v -24 -26 0
v -24 -25 0
v -23 -25 0
v -34 -26 0
v -35 -26 0
v -35 -25 0
v -34 -25 0
v -37 -26 0
v -38 -26 0
v -38 -25 0
v -37 -25 0
v -38 -26 0
v -39 -26 0
v -39 -25 0
v -38 -25 0
v -11 -29 0
v -12 -29 0
v -12 -28 0
v -11 -28 0
v -13 -29 0
v -14 -29 0
v -14 -28 0
v -13 -28 0
v -21 -29 0
v -22 -29 0
v -22 -28 0
v -21 -28 0
v -22 -29 0
v -23 -29 0
v -23 -28 0
v -22 -28 0
v -54 -29 0
v -55 -29 0
v -55 -28 0
v -54 -28 0
v -21 -30 0
v -22 -30 0
v -22 -29 0
v -21 -29 0
v -22 -30 0
v -23 -30 0
v -23 -29 0
v -22 -29 0
v -32 -30 0
v -33 -30 0
v -33 -29 0
v -32 -29 0
v -33 -30 0
v -34 -30 0
v -34 -29 0
v -33 -29 0
v -34 -30 0
v -35 -30 0
v -35 -29 0
v -34 -29 0
v -35 -30 0
v -36 -30 0
v -36 -29 0
v -35 -29 0
v -36 -30 0
v -37 -30 0
v -37 -29 0
v -36 -29 0
v -37 -30 0
v -38 -30 0
v -38 -29 0
v -37 -29 0
v -38 -30 0
v -39 -30 0
v -39 -29 0
v -38 -29 0
v -48 -30 0
v -49 -30 0
v -49 -29 0
v -48 -29 0
v -51 -30 0
v -52 -30 0
v -52 -29 0
v -51 -29 0
v -13 -31 0
v -14 -31 0
v -14 -30 0
v -13 -30 0
v -8 -34 0
v -9 -34 0
v -9 -33 0
v -8 -33 0
v -9 -34 0
v -10 -34 0
v -10 -33 0
v -9 -33 0
v -10 -34 0
v -11 -34 0
v -11 -33 0
v -10 -33 0
v -11 -34 0
v -12 -34 0
v -12 -33 0
v -11 -33 0
v -12 -34 0
v -13 -34 0
v -13 -33 0
v -12 -33 0
v -57 -34 0
v -58 -34 0
v -58 -33 0
v -57 -33 0
v -55 -35 0
v -56 -35 0
v -56 -34 0
v -55 -34 0
v -21 -36 0
v -22 -36 0
v -22 -35 0
v -21 -35 0
v -22 -36 0
v -23 -36 0
v -23 -35 0
v -22 -35 0
v -24 -36 0
v -25 -36 0
v -25 -35 0
v -24 -35 0
v -25 -36 0
v -26 -36 0
v -26 -35 0
v -25 -35 0
v -26 -36 0
v -27 -36 0
v -27 -35 0
v -26 -35 0
v -41 -36 0
v -42 -36 0
v -42 -35 0
v -41 -35 0
v -42 -36 0
v -43 -36 0
v -43 -35 0
v -42 -35 0
v -43 -36 0
v -44 -36 0
v -44 -35 0
v -43 -35 0
v -50 -36 0
v -51 -36 0
v -51 -35 0
v -50 -35 0
v -51 -36 0
v -52 -36 0
v -52 -35 0
v -51 -35 0
v -52 -36 0
v -53 -36 0
v -53 -35 0
v -52 -35 0
v -21 -37 0
v -22 -37 0
v -22 -36 0
v -21 -36 0
v -22 -37 0
v -23 -37 0
v -23 -36 0
v -22 -36 0
v -29 -38 0
v -30 -38 0
v -30 -37 0
v -29 -37 0
v -30 -38 0
v -31 -38 0
v -31 -37 0
v -30 -37 0
v -37 -38 0
v -38 -38 0
v -38 -37 0
v -37 -37 0
v -39 -38 0
v -40 -38 0
v -40 -37 0
v -39 -37 0
v -54 -38 0
v -55 -38 0
v -55 -37 0
v -54 -37 0
v -55 -38 0
v -56 -38 0
v -56 -37 0
v -55 -37 0
v -56 -38 0
v -57 -38 0
v -57 -37 0
v -56 -37 0
v -20 -39 0
v -21 -39 0
v -21 -38 0
v -20 -38 0
v -21 -39 0
v -22 -39 0
v -22 -38 0
v -21 -38 0
v -24 -39 0
v -25 -39 0
v -25 -38 0
v -24 -38 0
v -25 -39 0
v -26 -39 0
v -26 -38 0
v -25 -38 0
v -32 -39 0
v -33 -39 0
v -33 -38 0
v -32 -38 0
v -37 -39 0
v -38 -39 0
v -38 -38 0
v -37 -38 0
v -39 -39 0
v -40 -39 0
v -40 -38 0
v -39 -38 0
v -20 -40 0
v -21 -40 0
v -21 -39 0
v -20 -39 0
v -21 -40 0
v -22 -40 0
v -22 -39 0
v -21 -39 0
v -24 -40 0
v -25 -40 0
v -25 -39 0
v -24 -39 0
v -25 -40 0
v -26 -40 0
v -26 -39 0
v -25 -39 0
v -29 -40 0
v -30 -40 0
v -30 -39 0
v -29 -39 0
v -30 -40 0
v -31 -40 0
v -31 -39 0
v -30 -39 0
v -37 -40 0
v -38 -40 0
v -38 -39 0
v -37 -39 0
v -39 -40 0
v -40 -40 0
v -40 -39 0
v -39 -39 0
v -48 -40 0
v -49 -40 0
v -49 -39 0
v -48 -39 0
v -54 -40 0
v -55 -40 0
v -55 -39 0
v -54 -39 0
v -55 -40 0
v -56 -40 0
v -56 -39 0
v -55 -39 0
v -56 -40 0
v -57 -40 0
v -57 -39 0
v -56 -39 0
v -24 -41 0
v -25 -41 0
v -25 -40 0
v -24 -40 0
v -25 -41 0
v -26 -41 0
v -26 -40 0
v -25 -40 0
v -4 -42 0
v -5 -42 0
v -5 -41 0
v -4 -41 0
v -5 -42 0
v -6 -42 0
v -6 -41 0
v -5 -41 0
v -8 -42 0
v -9 -42 0
v -9 -41 0
v -8 -41 0
v -9 -42 0
v -10 -42 0
v -10 -41 0
v -9 -41 0
v -1 -43 0
v -2 -43 0
v -2 -42 0
v -1 -42 0
v -4 -43 0
v -5 -43 0
v -5 -42 0
v -4 -42 0
v -5 -43 0
v -6 -43 0
v -6 -42 0
v -5 -42 0
v -6 -43 0
v -7 -43 0
v -7 -42 0
v -6 -42 0
v -8 -43 0
v -9 -43 0
v -9 -42 0
v -8 -42 0
v -9 -43 0
v -10 -43 0
v -10 -42 0
v -9 -42 0
v -10 -43 0
v -11 -43 0
v -11 -42 0
v -10 -42 0
v -4 -44 0
v -5 -44 0
v -5 -43 0
v -4 -43 0
v -5 -44 0
v -6 -44 0
v -6 -43 0
v -5 -43 0
v -6 -44 0
v -7 -44 0
v -7 -43 0
v -6 -43 0
v -7 -44 0
v -8 -44 0
v -8 -43 0
v -7 -43 0
v -8 -44 0
v -9 -44 0
v -9 -43 0
v -8 -43 0
v -9 -44 0
v -10 -44 0
v -10 -43 0
v -9 -43 0
v -10 -44 0
v -11 -44 0
v -11 -43 0
v -10 -43 0
v -5 -45 0
v -6 -45 0
v -6 -44 0
v -5 -44 0
v -6 -45 0
v -7 -45 0
v -7 -44 0
v -6 -44 0
v -7 -45 0
v -8 -45 0
v -8 -44 0
v -7 -44 0
v -8 -45 0
v -9 -45 0
v -9 -44 0
v -8 -44 0
v -9 -45 0
v -10 -45 0
v -10 -44 0
v -9 -44 0
v -10 -45 0
v -11 -45 0
v -11 -44 0
v -10 -44 0
v -11 -45 0
v -12 -45 0
v -12 -44 0
v -11 -44 0
v -4 -46 0
v -5 -46 0
v -5 -45 0
v -4 -45 0
v -5 -46 0
v -6 -46 0
v -6 -45 0
v -5 -45 0
v -6 -46 0
v -7 -46 0
v -7 -45 0
v -6 -45 0
v -7 -46 0
v -8 -46 0
v -8 -45 0
v -7 -45 0
v -8 -46 0
v -9 -46 0
v -9 -45 0
v -8 -45 0
v -9 -46 0
v -10 -46 0
v -10 -45 0
v -9 -45 0
v -10 -46 0
v -11 -46 0
v -11 -45 0
v -10 -45 0
v -11 -46 0
v -12 -46 0
v -12 -45 0
v -11 -45 0
v -12 -46 0
v -13 -46 0
v -13 -45 0
v -12 -45 0
v -3 -47 0
v -4 -47 0
v -4 -46 0
v -3 -46 0
v -4 -47 0
v -5 -47 0
v -5 -46 0
v -4 -46 0
v -5 -47 0
v -6 -47 0
v -6 -46 0
v -5 -46 0
v -6 -47 0
v -7 -47 0
v -7 -46 0
v -6 -46 0
v -7 -47 0
v -8 -47 0
v -8 -46 0
v -7 -46 0
v -8 -47 0
v -9 -47 0
v -9 -46 0
v -8 -46 0
v -9 -47 0
v -10 -47 0
v -10 -46 0
v -9 -46 0
v -10 -47 0
v -11 -47 0
v -11 -46 0
v -10 -46 0
v -11 -47 0
v -12 -47 0
v -12 -46 0
v -11 -46 0
v -12 -47 0
v -13 -47 0
v -13 -46 0
v -12 -46 0
v -29 -47 0
v -30 -47 0
v -30 -46 0
v -29 -46 0
v -52 -47 0
v -53 -47 0
v -53 -46 0
v -52 -46 0

# Texture cooridinates (Count = 176)
vt 0.5303293 0.6519174
vt 0.5580589 0.6519174
vt 0.5580589 0.699115
vt 0.5303293 0.699115
vt 0.559792 0.6519174
vt 0.5875217 0.6519174
vt 0.5875217 0.699115
vt 0.559792 0.699115
vt 0.5303293 0.6017699
vt 0.5580589 0.6017699
vt 0.5580589 0.6489676
vt 0.5303293 0.6489676
vt 0.559792 0.6017699
vt 0.5875217 0.6017699
vt 0.5875217 0.6489676
vt 0.559792 0.6489676
vt 0.7642981 0.40118
vt 0.7642981 0.4483776
vt 0.7365685 0.4483776
vt 0.7365685 0.40118
vt 0.4696707 0
vt 0.4696707 0.04719764
vt 0.4419411 0.04719764
vt 0.4419411 0
vt 0.677643 0.1504425
vt 0.7053726 0.1504425
vt 0.7053726 0.1976401
vt 0.677643 0.1976401
vt 0.4991334 0.1976401
vt 0.4714038 0.1976401
vt 0.4714038 0.1504425
vt 0.4991334 0.1504425
vt 0.4696707 0.1976401
vt 0.4419411 0.1976401
vt 0.4419411 0.1504425
vt 0.4696707 0.1504425
vt 0.440208 0.1976401
vt 0.4124783 0.1976401
vt 0.4124783 0.1504425
vt 0.440208 0.1504425
vt 0.5892547 0.7522124
vt 0.6169844 0.7522124
vt 0.6169844 0.79941
vt 0.5892547 0.79941
vt 0.7053726 0.40118
vt 0.7053726 0.4483776
vt 0.677643 0.4483776
vt 0.677643 0.40118
vt 0.7937608 0.40118
vt 0.7937608 0.4483776
vt 0.7660312 0.4483776
vt 0.7660312 0.40118
vt 0.7348353 0.40118
vt 0.7348353 0.4483776
vt 0.7071057 0.4483776
vt 0.7071057 0.40118
vt 0.7365685 0.4513274
vt 0.7642981 0.4513274
vt 0.7642981 0.4985251
vt 0.7365685 0.4985251
vt 0.5892547 0.05014747
vt 0.6169844 0.05014747
vt 0.6169844 0.09734511
vt 0.5892547 0.09734511
vt 0.6481802 0.05014747
vt 0.6759099 0.05014747
vt 0.6759099 0.09734511
vt 0.6481802 0.09734511
vt 0.440208 0.05014747
vt 0.440208 0.09734511
vt 0.4124783 0.09734511
vt 0.4124783 0.05014747
vt 0.5303293 0.05014747
vt 0.5580589 0.05014747
vt 0.5580589 0.09734511
vt 0.5303293 0.09734511
vt 0.4991334 0.05014747
vt 0.4991334 0.09734511
vt 0.4714038 0.09734511
vt 0.4714038 0.05014747
vt 0.440208 0.100295
vt 0.440208 0.1474926
vt 0.4124783 0.1474926
vt 0.4124783 0.100295
vt 0.6187175 0.6519174
vt 0.6464471 0.6519174
vt 0.6464471 0.699115
vt 0.6187175 0.699115
vt 0.6481802 0.6519174
vt 0.6759099 0.6519174
vt 0.6759099 0.699115
vt 0.6481802 0.699115
vt 0.4696707 0.100295
vt 0.4696707 0.1474926
vt 0.4419411 0.1474926
vt 0.4419411 0.100295
vt 0.6464471 0.05014747
vt 0.6464471 0.09734511
vt 0.6187175 0.09734511
vt 0.6187175 0.05014747
vt 0.6187175 0.6017699
vt 0.6464471 0.6017699
vt 0.6464471 0.6489676
vt 0.6187175 0.6489676
vt 0.6481802 0.6017699
vt 0.6759099 0.6017699
vt 0.6759099 0.6489676
vt 0.6481802 0.6489676
vt 0.4991334 0.100295
vt 0.4991334 0.1474926
vt 0.4714038 0.1474926
vt 0.4714038 0.100295
vt 0.4991334 0.04719764
vt 0.4714038 0.04719764
vt 0.4714038 0
vt 0.4991334 0
vt 0.5008665 0.100295
vt 0.5285962 0.100295
vt 0.5285962 0.1474926
vt 0.5008665 0.1474926
vt 0.7071057 0.4985251
vt 0.7071057 0.4513274
vt 0.7348353 0.4513274
vt 0.7348353 0.4985251
vt 0.5892547 0.100295
vt 0.6169844 0.100295
vt 0.6169844 0.1474926
vt 0.5892547 0.1474926
vt 0.6187175 0.100295
vt 0.6464471 0.100295
vt 0.6464471 0.1474926
vt 0.6187175 0.1474926
vt 0.6481802 0.100295
vt 0.6759099 0.100295
vt 0.6759099 0.1474926
vt 0.6481802 0.1474926
vt 0.6169844 0.1504425
vt 0.6169844 0.1976401
vt 0.5892547 0.1976401
vt 0.5892547 0.1504425
vt 0.6759099 0.1504425
vt 0.6759099 0.1976401
vt 0.6481802 0.1976401
vt 0.6481802 0.1504425
vt 0.7660312 0.4513274
vt 0.7937608 0.4513274
vt 0.7937608 0.4985251
vt 0.7660312 0.4985251
vt 0.4696707 0.05014747
vt 0.4696707 0.09734511
vt 0.4419411 0.09734511
vt 0.4419411 0.05014747
vt 0.559792 0.100295
vt 0.5875217 0.100295
vt 0.5875217 0.1474926
vt 0.559792 0.1474926
vt 0.5892547 0.6519174
vt 0.6169844 0.6519174
vt 0.6169844 0.699115
vt 0.5892547 0.699115
vt 0.677643 0.6519174
vt 0.7053726 0.6519174
vt 0.7053726 0.699115
vt 0.677643 0.699115
vt 0.677643 0.4513274
vt 0.7053726 0.4513274
vt 0.7053726 0.4985251
vt 0.677643 0.4985251
vt 0.5008665 0.05014747
vt 0.5285962 0.05014747
vt 0.5285962 0.09734511
vt 0.5008665 0.09734511
vt 0.5303293 0.9528024
vt 0.5580589 0.9528024
vt 0.5580589 1
vt 0.5303293 1

# Normal
vn 0 0 -1

# Mesh description
g SuburbsMap2_mesh_0007

# Faces
f 1/1/1 2/2/1 3/3/1 4/4/1
f 5/5/1 6/6/1 7/7/1 8/8/1
f 9/9/1 10/10/1 11/11/1 12/12/1
f 13/13/1 14/14/1 15/15/1 16/16/1
f 17/17/1 18/18/1 19/19/1 20/20/1
f 21/21/1 22/22/1 23/23/1 24/24/1
f 25/25/1 26/26/1 27/27/1 28/28/1
f 29/23/1 30/24/1 31/21/1 32/22/1
f 33/29/1 34/30/1 35/31/1 36/32/1
f 37/33/1 38/34/1 39/35/1 40/36/1
f 41/37/1 42/38/1 43/39/1 44/40/1
f 45/41/1 46/42/1 47/43/1 48/44/1
f 49/41/1 50/42/1 51/43/1 52/44/1
f 53/41/1 54/42/1 55/43/1 56/44/1
f 57/45/1 58/46/1 59/47/1 60/48/1
f 61/1/1 62/2/1 63/3/1 64/4/1
f 65/5/1 66/6/1 67/7/1 68/8/1
f 69/49/1 70/50/1 71/51/1 72/52/1
f 73/9/1 74/10/1 75/11/1 76/12/1
f 77/13/1 78/14/1 79/15/1 80/16/1
f 81/53/1 82/54/1 83/55/1 84/56/1
f 85/57/1 86/58/1 87/59/1 88/60/1
f 89/61/1 90/62/1 91/63/1 92/64/1
f 93/65/1 94/66/1 95/67/1 96/68/1
f 97/25/1 98/26/1 99/27/1 100/28/1
f 101/69/1 102/70/1 103/71/1 104/72/1
f 105/62/1 106/63/1 107/64/1 108/61/1
f 109/73/1 110/74/1 111/75/1 112/76/1
f 113/77/1 114/78/1 115/79/1 116/80/1
f 117/66/1 118/67/1 119/68/1 120/65/1
f 121/81/1 122/82/1 123/83/1 124/84/1
f 125/62/1 126/63/1 127/64/1 128/61/1
f 129/85/1 130/86/1 131/87/1 132/88/1
f 133/89/1 134/90/1 135/91/1 136/92/1
f 137/93/1 138/94/1 139/95/1 140/96/1
f 141/97/1 142/98/1 143/99/1 144/100/1
f 145/41/1 146/42/1 147/43/1 148/44/1
f 149/41/1 150/42/1 151/43/1 152/44/1
f 153/101/1 154/102/1 155/103/1 156/104/1
f 157/105/1 158/106/1 159/107/1 160/108/1
f 161/1/1 162/2/1 163/3/1 164/4/1
f 165/5/1 166/6/1 167/7/1 168/8/1
f 169/109/1 170/110/1 171/111/1 172/112/1
f 173/66/1 174/67/1 175/68/1 176/65/1
f 177/113/1 178/114/1 179/115/1 180/116/1
f 181/113/1 182/114/1 183/115/1 184/116/1
f 185/113/1 186/114/1 187/115/1 188/116/1
f 189/1/1 190/2/1 191/3/1 192/4/1
f 193/5/1 194/6/1 195/7/1 196/8/1
f 197/9/1 198/10/1 199/11/1 200/12/1
f 201/13/1 202/14/1 203/15/1 204/16/1
f 205/117/1 206/118/1 207/119/1 208/120/1
f 209/59/1 210/60/1 211/57/1 212/58/1
f 213/121/1 214/122/1 215/123/1 216/124/1
f 217/125/1 218/126/1 219/127/1 220/128/1
f 221/129/1 222/130/1 223/131/1 224/132/1
f 225/133/1 226/134/1 227/135/1 228/136/1
f 229/9/1 230/10/1 231/11/1 232/12/1
f 233/13/1 234/14/1 235/15/1 236/16/1
f 237/19/1 238/20/1 239/17/1 240/18/1
f 241/47/1 242/48/1 243/45/1 244/46/1
f 245/19/1 246/20/1 247/17/1 248/18/1
f 249/116/1 250/113/1 251/114/1 252/115/1
f 253/137/1 254/138/1 255/139/1 256/140/1
f 257/114/1 258/115/1 259/116/1 260/113/1
f 261/47/1 262/48/1 263/45/1 264/46/1
f 265/116/1 266/113/1 267/114/1 268/115/1
f 269/141/1 270/142/1 271/143/1 272/144/1
f 273/114/1 274/115/1 275/116/1 276/113/1
f 277/48/1 278/45/1 279/46/1 280/47/1
f 281/56/1 282/53/1 283/54/1 284/55/1
f 285/57/1 286/58/1 287/59/1 288/60/1
f 289/145/1 290/146/1 291/147/1 292/148/1
f 293/48/1 294/45/1 295/46/1 296/47/1
f 297/56/1 298/53/1 299/54/1 300/55/1
f 301/1/1 302/2/1 303/3/1 304/4/1
f 305/5/1 306/6/1 307/7/1 308/8/1
f 309/9/1 310/10/1 311/11/1 312/12/1
f 313/13/1 314/14/1 315/15/1 316/16/1
f 317/85/1 318/86/1 319/87/1 320/88/1
f 321/89/1 322/90/1 323/91/1 324/92/1
f 325/1/1 326/2/1 327/3/1 328/4/1
f 329/5/1 330/6/1 331/7/1 332/8/1
f 333/101/1 334/102/1 335/103/1 336/104/1
f 337/105/1 338/106/1 339/107/1 340/108/1
f 341/9/1 342/10/1 343/11/1 344/12/1
f 345/13/1 346/14/1 347/15/1 348/16/1
f 349/69/1 350/70/1 351/71/1 352/72/1
f 353/62/1 354/63/1 355/64/1 356/61/1
f 357/116/1 358/113/1 359/114/1 360/115/1
f 361/137/1 362/138/1 363/139/1 364/140/1
f 365/114/1 366/115/1 367/116/1 368/113/1
f 369/61/1 370/62/1 371/63/1 372/64/1
f 373/65/1 374/66/1 375/67/1 376/68/1
f 377/149/1 378/150/1 379/151/1 380/152/1
f 381/97/1 382/98/1 383/99/1 384/100/1
f 385/1/1 386/2/1 387/3/1 388/4/1
f 389/5/1 390/6/1 391/7/1 392/8/1
f 393/116/1 394/113/1 395/114/1 396/115/1
f 397/141/1 398/142/1 399/143/1 400/144/1
f 401/114/1 402/115/1 403/116/1 404/113/1
f 405/77/1 406/78/1 407/79/1 408/80/1
f 409/66/1 410/67/1 411/68/1 412/65/1
f 413/9/1 414/10/1 415/11/1 416/12/1
f 417/13/1 418/14/1 419/15/1 420/16/1
f 421/153/1 422/154/1 423/155/1 424/156/1
f 425/72/1 426/69/1 427/70/1 428/71/1
f 429/80/1 430/77/1 431/78/1 432/79/1
f 433/153/1 434/154/1 435/155/1 436/156/1
f 437/157/1 438/158/1 439/159/1 440/160/1
f 441/85/1 442/86/1 443/87/1 444/88/1
f 445/89/1 446/90/1 447/91/1 448/92/1
f 449/161/1 450/162/1 451/163/1 452/164/1
f 453/101/1 454/102/1 455/103/1 456/104/1
f 457/105/1 458/106/1 459/107/1 460/108/1
f 461/57/1 462/58/1 463/59/1 464/60/1
f 465/145/1 466/146/1 467/147/1 468/148/1
f 469/48/1 470/45/1 471/46/1 472/47/1
f 473/20/1 474/17/1 475/18/1 476/19/1
f 477/48/1 478/45/1 479/46/1 480/47/1
f 481/165/1 482/166/1 483/167/1 484/168/1
f 485/165/1 486/166/1 487/167/1 488/168/1
f 489/161/1 490/162/1 491/163/1 492/164/1
f 493/157/1 494/158/1 495/159/1 496/160/1
f 497/157/1 498/158/1 499/159/1 500/160/1
f 501/48/1 502/45/1 503/46/1 504/47/1
f 505/20/1 506/17/1 507/18/1 508/19/1
f 509/48/1 510/45/1 511/46/1 512/47/1
f 513/57/1 514/58/1 515/59/1 516/60/1
f 517/165/1 518/166/1 519/167/1 520/168/1
f 521/157/1 522/158/1 523/159/1 524/160/1
f 525/161/1 526/162/1 527/163/1 528/164/1
f 529/1/1 530/2/1 531/3/1 532/4/1
f 533/5/1 534/6/1 535/7/1 536/8/1
f 537/18/1 538/19/1 539/20/1 540/17/1
f 541/46/1 542/47/1 543/48/1 544/45/1
f 545/59/1 546/60/1 547/57/1 548/58/1
f 549/59/1 550/60/1 551/57/1 552/58/1
f 553/46/1 554/47/1 555/48/1 556/45/1
f 557/18/1 558/19/1 559/20/1 560/17/1
f 561/18/1 562/19/1 563/20/1 564/17/1
f 565/46/1 566/47/1 567/48/1 568/45/1
f 569/59/1 570/60/1 571/57/1 572/58/1
f 573/9/1 574/10/1 575/11/1 576/12/1
f 577/13/1 578/14/1 579/15/1 580/16/1
f 581/61/1 582/62/1 583/63/1 584/64/1
f 585/65/1 586/66/1 587/67/1 588/68/1
f 589/62/1 590/63/1 591/64/1 592/61/1
f 593/30/1 594/31/1 595/32/1 596/29/1
f 597/78/1 598/79/1 599/80/1 600/77/1
f 601/150/1 602/151/1 603/152/1 604/149/1
f 605/70/1 606/71/1 607/72/1 608/69/1
f 609/1/1 610/2/1 611/3/1 612/4/1
f 613/5/1 614/6/1 615/7/1 616/8/1
f 617/22/1 618/23/1 619/24/1 620/21/1
f 621/22/1 622/23/1 623/24/1 624/21/1
f 625/157/1 626/158/1 627/159/1 628/160/1
f 629/97/1 630/98/1 631/99/1 632/100/1
f 633/34/1 634/35/1 635/36/1 636/33/1
f 637/9/1 638/10/1 639/11/1 640/12/1
f 641/13/1 642/14/1 643/15/1 644/16/1
f 645/140/1 646/137/1 647/138/1 648/139/1
f 649/144/1 650/141/1 651/142/1 652/143/1
f 653/169/1 654/170/1 655/171/1 656/172/1
f 657/169/1 658/170/1 659/171/1 660/172/1
f 661/66/1 662/67/1 663/68/1 664/65/1
f 665/38/1 666/39/1 667/40/1 668/37/1
f 669/157/1 670/158/1 671/159/1 672/160/1
f 673/61/1 674/62/1 675/63/1 676/64/1
f 677/100/1 678/97/1 679/98/1 680/99/1
f 681/65/1 682/66/1 683/67/1 684/68/1
f 685/24/1 686/21/1 687/22/1 688/23/1
f 689/24/1 690/21/1 691/22/1 692/23/1
f 693/173/1 694/174/1 695/175/1 696/176/1
f 697/173/1 698/174/1 699/175/1 700/176/1
f 701/173/1 702/174/1 703/175/1 704/176/1
f 705/173/1 706/174/1 707/175/1 708/176/1
f 709/157/1 710/158/1 711/159/1 712/160/1
f 713/173/1 714/174/1 715/175/1 716/176/1
f 717/173/1 718/174/1 719/175/1 720/176/1
f 721/173/1 722/174/1 723/175/1 724/176/1
f 725/173/1 726/174/1 727/175/1 728/176/1
f 729/173/1 730/174/1 731/175/1 732/176/1
f 733/173/1 734/174/1 735/175/1 736/176/1
f 737/173/1 738/174/1 739/175/1 740/176/1
f 741/173/1 742/174/1 743/175/1 744/176/1
f 745/173/1 746/174/1 747/175/1 748/176/1
f 749/173/1 750/174/1 751/175/1 752/176/1
f 753/173/1 754/174/1 755/175/1 756/176/1
f 757/173/1 758/174/1 759/175/1 760/176/1
f 761/173/1 762/174/1 763/175/1 764/176/1
f 765/173/1 766/174/1 767/175/1 768/176/1
f 769/173/1 770/174/1 771/175/1 772/176/1
f 773/173/1 774/174/1 775/175/1 776/176/1
f 777/173/1 778/174/1 779/175/1 780/176/1
f 781/173/1 782/174/1 783/175/1 784/176/1
f 785/173/1 786/174/1 787/175/1 788/176/1
f 789/173/1 790/174/1 791/175/1 792/176/1
f 793/173/1 794/174/1 795/175/1 796/176/1
f 797/173/1 798/174/1 799/175/1 800/176/1
f 801/173/1 802/174/1 803/175/1 804/176/1
f 805/173/1 806/174/1 807/175/1 808/176/1
f 809/173/1 810/174/1 811/175/1 812/176/1
f 813/173/1 814/174/1 815/175/1 816/176/1
f 817/173/1 818/174/1 819/175/1 820/176/1
f 821/173/1 822/174/1 823/175/1 824/176/1
f 825/173/1 826/174/1 827/175/1 828/176/1
f 829/173/1 830/174/1 831/175/1 832/176/1
f 833/173/1 834/174/1 835/175/1 836/176/1
f 837/173/1 838/174/1 839/175/1 840/176/1
f 841/173/1 842/174/1 843/175/1 844/176/1
f 845/173/1 846/174/1 847/175/1 848/176/1
f 849/173/1 850/174/1 851/175/1 852/176/1
f 853/173/1 854/174/1 855/175/1 856/176/1
f 857/173/1 858/174/1 859/175/1 860/176/1
f 861/173/1 862/174/1 863/175/1 864/176/1
f 865/173/1 866/174/1 867/175/1 868/176/1
f 869/157/1 870/158/1 871/159/1 872/160/1
f 873/157/1 874/158/1 875/159/1 876/160/1

